<?xml version="1.0" encoding="UTF-8" standalone="no"?><svg xmlns="http://www.w3.org/2000/svg" xmlns:xlink="http://www.w3.org/1999/xlink" contentStyleType="text/css" height="319px" preserveAspectRatio="none" style="width:353px;height:319px;background:#FFFFFF;" version="1.1" viewBox="0 0 353 319" width="353px" zoomAndPan="magnify"><defs/><g><!--MD5=[be996cdb8e6bf2fc7cb89c555f2cd144]
class Entity--><g id="elem_Entity"><rect codeLine="5" fill="#F1F1F1" height="105.1875" id="Entity" rx="2.5" ry="2.5" style="stroke:#181818;stroke-width:0.5;" width="142" x="93.5" y="107"/><ellipse cx="141.25" cy="123" fill="#ADD1B2" rx="11" ry="11" style="stroke:#181818;stroke-width:1.0;"/><path d="M144.2188,128.6406 Q143.6406,128.9375 143,129.0781 Q142.3594,129.2344 141.6563,129.2344 Q139.1563,129.2344 137.8281,127.5938 Q136.5156,125.9375 136.5156,122.8125 Q136.5156,119.6875 137.8281,118.0313 Q139.1563,116.375 141.6563,116.375 Q142.3594,116.375 143,116.5313 Q143.6563,116.6875 144.2188,116.9844 L144.2188,119.7031 Q143.5938,119.125 143,118.8594 Q142.4063,118.5781 141.7813,118.5781 Q140.4375,118.5781 139.75,119.6563 Q139.0625,120.7188 139.0625,122.8125 Q139.0625,124.9063 139.75,125.9844 Q140.4375,127.0469 141.7813,127.0469 Q142.4063,127.0469 143,126.7813 Q143.5938,126.5 144.2188,125.9219 L144.2188,128.6406 Z " fill="#000000"/><text fill="#000000" font-family="sans-serif" font-size="14" lengthAdjust="spacing" textLength="38" x="161.75" y="127.8467">Entity</text><line style="stroke:#181818;stroke-width:0.5;" x1="94.5" x2="234.5" y1="139" y2="139"/><text fill="#000000" font-family="sans-serif" font-size="14" lengthAdjust="spacing" textLength="66" x="99.5" y="155.9951">-id: String</text><text fill="#000000" font-family="sans-serif" font-size="14" lengthAdjust="spacing" textLength="113" x="99.5" y="172.292">-latitude: double</text><text fill="#000000" font-family="sans-serif" font-size="14" lengthAdjust="spacing" textLength="127" x="99.5" y="188.5889">-longitude: double</text><text fill="#000000" font-family="sans-serif" font-size="14" lengthAdjust="spacing" textLength="130" x="99.5" y="204.8857">-localization: String</text></g><!--MD5=[ed6624c6556d5e7b1bd23032162d20b7]
class Client--><g id="elem_Client"><rect codeLine="12" fill="#F1F1F1" height="40" id="Client" rx="2.5" ry="2.5" style="stroke:#181818;stroke-width:0.5;" width="71" x="7" y="272"/><ellipse cx="22" cy="288" fill="#ADD1B2" rx="11" ry="11" style="stroke:#181818;stroke-width:1.0;"/><path d="M24.9688,293.6406 Q24.3906,293.9375 23.75,294.0781 Q23.1094,294.2344 22.4063,294.2344 Q19.9063,294.2344 18.5781,292.5938 Q17.2656,290.9375 17.2656,287.8125 Q17.2656,284.6875 18.5781,283.0313 Q19.9063,281.375 22.4063,281.375 Q23.1094,281.375 23.75,281.5313 Q24.4063,281.6875 24.9688,281.9844 L24.9688,284.7031 Q24.3438,284.125 23.75,283.8594 Q23.1563,283.5781 22.5313,283.5781 Q21.1875,283.5781 20.5,284.6563 Q19.8125,285.7188 19.8125,287.8125 Q19.8125,289.9063 20.5,290.9844 Q21.1875,292.0469 22.5313,292.0469 Q23.1563,292.0469 23.75,291.7813 Q24.3438,291.5 24.9688,290.9219 L24.9688,293.6406 Z " fill="#000000"/><text fill="#000000" font-family="sans-serif" font-size="14" lengthAdjust="spacing" textLength="39" x="36" y="292.8467">Client</text><line style="stroke:#181818;stroke-width:0.5;" x1="8" x2="77" y1="304" y2="304"/></g><!--MD5=[428f3d998c8a9a358b7cb233b781ad06]
class Enterprise--><g id="elem_Enterprise"><rect codeLine="13" fill="#F1F1F1" height="40" id="Enterprise" rx="2.5" ry="2.5" style="stroke:#181818;stroke-width:0.5;" width="103" x="113" y="272"/><ellipse cx="128" cy="288" fill="#ADD1B2" rx="11" ry="11" style="stroke:#181818;stroke-width:1.0;"/><path d="M130.9688,293.6406 Q130.3906,293.9375 129.75,294.0781 Q129.1094,294.2344 128.4063,294.2344 Q125.9063,294.2344 124.5781,292.5938 Q123.2656,290.9375 123.2656,287.8125 Q123.2656,284.6875 124.5781,283.0313 Q125.9063,281.375 128.4063,281.375 Q129.1094,281.375 129.75,281.5313 Q130.4063,281.6875 130.9688,281.9844 L130.9688,284.7031 Q130.3438,284.125 129.75,283.8594 Q129.1563,283.5781 128.5313,283.5781 Q127.1875,283.5781 126.5,284.6563 Q125.8125,285.7188 125.8125,287.8125 Q125.8125,289.9063 126.5,290.9844 Q127.1875,292.0469 128.5313,292.0469 Q129.1563,292.0469 129.75,291.7813 Q130.3438,291.5 130.9688,290.9219 L130.9688,293.6406 Z " fill="#000000"/><text fill="#000000" font-family="sans-serif" font-size="14" lengthAdjust="spacing" textLength="71" x="142" y="292.8467">Enterprise</text><line style="stroke:#181818;stroke-width:0.5;" x1="114" x2="215" y1="304" y2="304"/></g><!--MD5=[09e3160644ea82bed9dc2bfdc7bfe5c8]
class Producer--><g id="elem_Producer"><rect codeLine="14" fill="#F1F1F1" height="40" id="Producer" rx="2.5" ry="2.5" style="stroke:#181818;stroke-width:0.5;" width="95" x="251" y="272"/><ellipse cx="266" cy="288" fill="#ADD1B2" rx="11" ry="11" style="stroke:#181818;stroke-width:1.0;"/><path d="M268.9688,293.6406 Q268.3906,293.9375 267.75,294.0781 Q267.1094,294.2344 266.4063,294.2344 Q263.9063,294.2344 262.5781,292.5938 Q261.2656,290.9375 261.2656,287.8125 Q261.2656,284.6875 262.5781,283.0313 Q263.9063,281.375 266.4063,281.375 Q267.1094,281.375 267.75,281.5313 Q268.4063,281.6875 268.9688,281.9844 L268.9688,284.7031 Q268.3438,284.125 267.75,283.8594 Q267.1563,283.5781 266.5313,283.5781 Q265.1875,283.5781 264.5,284.6563 Q263.8125,285.7188 263.8125,287.8125 Q263.8125,289.9063 264.5,290.9844 Q265.1875,292.0469 266.5313,292.0469 Q267.1563,292.0469 267.75,291.7813 Q268.3438,291.5 268.9688,290.9219 L268.9688,293.6406 Z " fill="#000000"/><text fill="#000000" font-family="sans-serif" font-size="14" lengthAdjust="spacing" textLength="63" x="280" y="292.8467">Producer</text><line style="stroke:#181818;stroke-width:0.5;" x1="252" x2="345" y1="304" y2="304"/></g><!--MD5=[94788779d4739de2902497064b395820]
class DistributionNetwork--><g id="elem_DistributionNetwork"><rect codeLine="20" fill="#F1F1F1" height="40" id="DistributionNetwork" rx="2.5" ry="2.5" style="stroke:#181818;stroke-width:0.5;" width="168" x="80.5" y="7"/><ellipse cx="95.5" cy="23" fill="#ADD1B2" rx="11" ry="11" style="stroke:#181818;stroke-width:1.0;"/><path d="M98.4688,28.6406 Q97.8906,28.9375 97.25,29.0781 Q96.6094,29.2344 95.9063,29.2344 Q93.4063,29.2344 92.0781,27.5938 Q90.7656,25.9375 90.7656,22.8125 Q90.7656,19.6875 92.0781,18.0313 Q93.4063,16.375 95.9063,16.375 Q96.6094,16.375 97.25,16.5313 Q97.9063,16.6875 98.4688,16.9844 L98.4688,19.7031 Q97.8438,19.125 97.25,18.8594 Q96.6563,18.5781 96.0313,18.5781 Q94.6875,18.5781 94,19.6563 Q93.3125,20.7188 93.3125,22.8125 Q93.3125,24.9063 94,25.9844 Q94.6875,27.0469 96.0313,27.0469 Q96.6563,27.0469 97.25,26.7813 Q97.8438,26.5 98.4688,25.9219 L98.4688,28.6406 Z " fill="#000000"/><text fill="#000000" font-family="sans-serif" font-size="14" lengthAdjust="spacing" textLength="136" x="109.5" y="27.8467">DistributionNetwork</text><line style="stroke:#181818;stroke-width:0.5;" x1="81.5" x2="247.5" y1="39" y2="39"/></g><!--MD5=[8c18a3e940869885f988beeec74dfa23]
reverse link Entity to Client--><g id="link_Entity_Client"><path codeLine="16" d="M102.46,226.86 C86.99,243.41 71.6,259.87 60.29,271.97 " fill="none" id="Entity-backto-Client" style="stroke:#181818;stroke-width:1.0;"/><polygon fill="none" points="97.51,221.91,116.28,212.08,107.74,231.47,97.51,221.91" style="stroke:#181818;stroke-width:1.0;"/></g><!--MD5=[e621ab605ec2d9cc329af207384c1968]
reverse link Entity to Enterprise--><g id="link_Entity_Enterprise"><path codeLine="17" d="M164.5,232.15 C164.5,246.87 164.5,261.16 164.5,271.97 " fill="none" id="Entity-backto-Enterprise" style="stroke:#181818;stroke-width:1.0;"/><polygon fill="none" points="157.5,232.08,164.5,212.08,171.5,232.08,157.5,232.08" style="stroke:#181818;stroke-width:1.0;"/></g><!--MD5=[27faf48719fdd40080575ded41375000]
reverse link Entity to Producer--><g id="link_Entity_Producer"><path codeLine="18" d="M231.86,226.1 C249.12,242.91 266.35,259.69 278.96,271.97 " fill="none" id="Entity-backto-Producer" style="stroke:#181818;stroke-width:1.0;"/><polygon fill="none" points="226.9,231.05,217.46,212.08,236.67,221.02,226.9,231.05" style="stroke:#181818;stroke-width:1.0;"/></g><!--MD5=[802b9330f98d08335a97b0333adfc40d]
reverse link DistributionNetwork to Entity--><g id="link_DistributionNetwork_Entity"><path codeLine="22" d="M164.5,60.65 C164.5,74.59 164.5,91.19 164.5,106.73 " fill="none" id="DistributionNetwork-backto-Entity" style="stroke:#181818;stroke-width:1.0;"/><polygon fill="none" points="164.5,47.26,160.5,53.26,164.5,59.26,168.5,53.26,164.5,47.26" style="stroke:#181818;stroke-width:1.0;"/><text fill="#000000" font-family="sans-serif" font-size="13" lengthAdjust="spacing" textLength="8" x="155.375" y="67.1531">1</text><text fill="#000000" font-family="sans-serif" font-size="13" lengthAdjust="spacing" textLength="7" x="157.0516" y="96.0713">*</text></g><!--MD5=[30e5107092f8b3ad4c3bfbeb913cc111]
@startuml DM

skinparam classAttributeIconSize 0
hide methods

class Entity {
  - id: String
  - latitude: double
  - longitude: double
  - localization: String
}

class Client {}
class Enterprise {}
class Producer {}

Entity <|- - Client
Entity <|- - Enterprise
Entity <|- - Producer

class DistributionNetwork {}

DistributionNetwork "1" o- - "*" Entity
@enduml

PlantUML version 1.2022.7(Mon Aug 22 18:01:30 WEST 2022)
(GPL source distribution)
Java Runtime: OpenJDK Runtime Environment
JVM: OpenJDK 64-Bit Server VM
Default Encoding: UTF-8
Language: en
Country: US
--></g></svg>