<svg version="1.1" xmlns="http://www.w3.org/2000/svg" viewBox="0 0 2366.1232474649505 1012.347886359086" width="7098.3697423948515" height="3037.043659077258">
  <!-- svg-source:excalidraw -->
  
  <defs>
    <style class="style-fonts">
      @font-face {
        font-family: "Virgil";
        src: url("https://excalidraw.com/Virgil.woff2");
      }
      @font-face {
        font-family: "Cascadia";
        src: url("https://excalidraw.com/Cascadia.woff2");
      }
    </style>
  </defs>
  <rect x="0" y="0" width="2366.1232474649505" height="1012.347886359086" fill="#ffffff"></rect><g stroke-linecap="round" transform="translate(1217.0737181768354 337.81764633136066) rotate(0 66.81817626953125 24.090911865234375)"><path d="M-0.18 -0.57 C40.47 0.5, 79.21 -2.26, 135.39 1.82 M0.9 -0.75 C29.35 -1.03, 59.91 -1.61, 132.83 -0.78 M134.53 0.62 C134.95 11.92, 135.27 26.02, 134.28 47.89 M133.07 -0.22 C133.96 16.57, 132.71 33.89, 133.31 48.38 M131.75 49.73 C83.73 48.71, 33.04 50.89, -2 50.01 M133.98 47.84 C85.44 47.18, 40.12 47.63, 0.82 47.72 M0.08 47.69 C-0.38 37.55, 0.09 28.01, -1.38 1.95 M0.33 48 C0.49 36.47, 0.04 26.18, 0.5 -0.86" stroke="#000000" stroke-width="1" fill="none"></path></g><g transform="translate(1245.8918944463667 349.40855819659504) rotate(0 38 12.5)"><text x="38" y="17" font-family="Virgil, Segoe UI Emoji" font-size="20px" fill="#000000" text-anchor="middle" style="white-space: pre;" direction="ltr">Cultura</text></g><g stroke-linecap="round" transform="translate(1172.5282469854292 251.45401031451496) rotate(0 46.81817626953125 19.545454025268555)"><path d="M38.16 0.65 C46.78 -0.33, 59.34 0.6, 67.65 2.34 C75.97 4.08, 83.92 7.73, 88.06 11.1 C92.2 14.48, 93.74 18.8, 92.47 22.56 C91.2 26.32, 86.85 31.07, 80.42 33.68 C73.99 36.29, 62.84 37.5, 53.91 38.23 C44.99 38.96, 35.07 39.5, 26.87 38.05 C18.66 36.6, 8.93 33.02, 4.7 29.53 C0.46 26.03, -0.11 21.07, 1.45 17.07 C3.02 13.08, 6.98 8.4, 14.08 5.56 C21.19 2.71, 38.28 0.71, 44.1 0.02 C49.91 -0.68, 48.93 0.98, 48.97 1.39 M62 0.84 C70.12 1.88, 78.79 4.41, 84.11 7.56 C89.43 10.72, 94.18 15.83, 93.92 19.78 C93.66 23.72, 88.13 28.04, 82.55 31.22 C76.97 34.39, 68.95 37.8, 60.43 38.82 C51.9 39.85, 40.34 38.61, 31.4 37.38 C22.47 36.15, 11.91 34.47, 6.8 31.47 C1.68 28.47, -0.03 23.12, 0.7 19.38 C1.43 15.64, 5.69 12.23, 11.17 9.03 C16.65 5.84, 25.19 1.73, 33.59 0.21 C41.99 -1.31, 57.04 -0.27, 61.59 -0.09 C66.14 0.09, 60.74 0.67, 60.88 1.27" stroke="#000000" stroke-width="1" fill="none"></path></g><g transform="translate(1199.8464232549604 258.4994643397835) rotate(0 19.5 12.5)"><text x="19.5" y="17" font-family="Virgil, Segoe UI Emoji" font-size="20px" fill="#000000" text-anchor="middle" style="white-space: pre;" direction="ltr">tipo</text></g><g stroke-linecap="round" transform="translate(1287.8918944463667 253.72674400286945) rotate(0 46.81817626953125 19.545454025268555)"><path d="M66.87 1.34 C75.05 2.85, 82.98 6.92, 87.3 10.54 C91.62 14.17, 93.99 19.29, 92.81 23.06 C91.62 26.83, 86.43 30.58, 80.21 33.16 C73.99 35.73, 64.58 37.85, 55.49 38.5 C46.4 39.14, 34.12 38.59, 25.66 37.04 C17.2 35.5, 8.81 32.56, 4.73 29.21 C0.65 25.86, -0.13 20.84, 1.21 16.94 C2.54 13.05, 6.44 8.54, 12.75 5.82 C19.05 3.1, 28.95 1.18, 39.04 0.63 C49.13 0.08, 66.86 1.7, 73.28 2.51 C79.7 3.32, 78 5.02, 77.57 5.48 M55.72 0.19 C64.29 0.58, 75.13 2.67, 81.39 5.72 C87.65 8.77, 92.21 14.29, 93.29 18.5 C94.37 22.71, 92.67 27.75, 87.85 30.98 C83.04 34.22, 73.17 36.82, 64.4 37.91 C55.62 39, 43.89 38.46, 35.2 37.54 C26.51 36.61, 18.27 34.82, 12.26 32.36 C6.25 29.9, -0.03 26.72, -0.89 22.79 C-1.74 18.86, 2.18 12.12, 7.13 8.79 C12.07 5.45, 20.71 4.17, 28.81 2.8 C36.9 1.42, 51.27 0.9, 55.69 0.54 C60.12 0.18, 55.19 0.31, 55.37 0.62" stroke="#000000" stroke-width="1" fill="none"></path></g><g transform="translate(1311.710070715898 260.772198028138) rotate(0 23 12.5)"><text x="23" y="17" font-family="Virgil, Segoe UI Emoji" font-size="20px" fill="#000000" text-anchor="middle" style="white-space: pre;" direction="ltr">nome</text></g><g stroke-linecap="round"><g transform="translate(1209.8009825811323 286.90855819659504) rotate(0 16.53573101255114 25.102584998132656)"><path d="M0.47 0.95 C5.67 9.1, 26.48 40.4, 31.66 48.24 M-0.74 0.4 C4.77 8.82, 28.05 41.67, 33.81 49.8" stroke="#000000" stroke-width="1" fill="none"></path></g></g><g stroke-linecap="round"><g transform="translate(1317.0736876592573 293.272198028138) rotate(0 -9.714743067482488 21.590007932786833)"><path d="M-0.91 -0.06 C-4.29 7.31, -16.47 37.14, -19.54 44.31 M0.82 -1.13 C-2.75 5.88, -16.83 35.03, -20.25 42.54" stroke="#000000" stroke-width="1" fill="none"></path></g></g><g stroke-linecap="round" transform="translate(436.20513610771707 612.5175197754463) rotate(0 96.5 30)"><path d="M1.14 -1.11 C52.65 -0.92, 103.66 -1.02, 193.92 0.79 M0.48 -0.09 C66.46 -0.02, 130.6 0.4, 192.98 -0.47 M191.68 0.52 C192.46 14.38, 190.84 29.76, 193.35 60.74 M193.27 0.6 C192.87 22.65, 192.38 44.92, 193.57 60.65 M193.73 61.4 C149.44 57.21, 104.54 60.03, -1.82 60.11 M193.67 60.64 C132.35 62.25, 69.73 61.97, 0.14 60.43 M0.34 59.63 C1.76 37.16, -0.91 14.87, 0.17 0.97 M-0.98 59.7 C-0.77 43.1, -0.72 25.26, 0.96 -0.25" stroke="#000000" stroke-width="1" fill="none"></path></g><g transform="translate(453.70513610771707 630.0175197754463) rotate(0 79 12.5)"><text x="79" y="17" font-family="Virgil, Segoe UI Emoji" font-size="20px" fill="#000000" text-anchor="middle" style="white-space: pre;" direction="ltr">Fator Producao</text></g><g stroke-linecap="round" transform="translate(442.71860765232475 850.6548456110067) rotate(0 96.59090042114258 25)"><path d="M0.07 1.62 C45.17 0.28, 95.32 -1.96, 193.86 1.95 M0.06 0.05 C45.42 2.15, 89.61 2.37, 192.55 0.59 M194.89 1.11 C192.86 14.88, 192.44 27.85, 191.72 51.94 M193.05 -0.29 C194.36 10.27, 194.52 20.93, 192.89 50.11 M193.56 51.01 C140.82 51.86, 87.88 49.61, -0.55 49.61 M193.76 49.91 C140.16 49.5, 89.31 48.49, 0.77 50.26 M-0.02 51.92 C0.56 32.66, 1.62 17.13, -0.45 1.62 M0.91 49.4 C-0.67 32.93, 0.31 14.16, 0.36 -0.96" stroke="#000000" stroke-width="1" fill="none"></path></g><g transform="translate(485.3095080734673 863.1548456110067) rotate(0 54 12.5)"><text x="54" y="17" font-family="Virgil, Segoe UI Emoji" font-size="20px" fill="#000000" text-anchor="middle" style="white-space: pre;" direction="ltr">Substancia</text></g><g stroke-linecap="round" transform="translate(396.19017330585336 956.347886359086) rotate(0 70.5 23)"><path d="M71.64 0.65 C82.96 0.25, 97.04 0.84, 107.02 2.69 C117 4.54, 125.78 8.2, 131.53 11.76 C137.28 15.32, 141.58 20.06, 141.5 24.06 C141.42 28.07, 137.29 32.53, 131.03 35.78 C124.77 39.03, 114.38 42.01, 103.92 43.56 C93.46 45.1, 79.95 45.12, 68.28 45.05 C56.61 44.98, 43.77 45, 33.91 43.15 C24.05 41.3, 14.85 37.45, 9.11 33.94 C3.37 30.44, -0.56 25.76, -0.52 22.1 C-0.49 18.45, 3.17 15.26, 9.35 12 C15.53 8.74, 24.81 4.5, 36.56 2.53 C48.31 0.56, 71.55 0.44, 79.85 0.18 C88.14 -0.07, 86.48 0.76, 86.33 1 M61.98 0.47 C72.57 -0.59, 85.59 -0.5, 96.37 1.07 C107.15 2.64, 119.26 6.84, 126.68 9.91 C134.1 12.97, 139.23 15.67, 140.91 19.46 C142.58 23.26, 141.37 28.98, 136.7 32.7 C132.03 36.42, 122.23 39.58, 112.9 41.79 C103.58 44, 92.26 45.41, 80.73 45.96 C69.2 46.51, 54.54 46.75, 43.72 45.1 C32.9 43.46, 23.05 39.18, 15.82 36.11 C8.59 33.05, 2.08 30.58, 0.35 26.71 C-1.38 22.84, 0.9 16.66, 5.44 12.9 C9.97 9.14, 18.39 6.22, 27.54 4.17 C36.7 2.12, 54.46 0.95, 60.35 0.59 C66.24 0.22, 62.57 1.65, 62.89 1.99" stroke="#000000" stroke-width="1" fill="none"></path></g><g transform="translate(419.19017330585336 966.847886359086) rotate(0 47.5 12.5)"><text x="47.5" y="17" font-family="Virgil, Segoe UI Emoji" font-size="20px" fill="#000000" text-anchor="middle" style="white-space: pre;" direction="ltr">categoria</text></g><g stroke-linecap="round" transform="translate(718.3749922773271 102.78380236352672) rotate(0 70.45455932617188 23.295440673828125)"><path d="M-1.38 0.1 C54.47 -0.05, 108 -1.15, 139.7 1.4 M0.99 0.71 C41.34 1.97, 82.73 2.15, 140.63 -0.64 M140.88 -0.61 C140.47 15.45, 141.6 33, 139.46 48.19 M141.28 -0.86 C141.63 13.1, 140.94 27.12, 141.15 47.52 M142.13 45.98 C94.14 43.32, 49.53 43.99, -1.41 46.87 M141.59 46.99 C102.54 46.66, 62.83 46.27, -0.32 47.09 M-0.01 45.79 C-1.04 33.99, -0.85 19.38, -1.17 0.87 M0.09 46.67 C0.92 37.66, -0.38 27.03, -0.69 -0.32" stroke="#000000" stroke-width="1" fill="none"></path></g><g transform="translate(763.829551603499 113.57924303735484) rotate(0 25 12.5)"><text x="25" y="17" font-family="Virgil, Segoe UI Emoji" font-size="20px" fill="#000000" text-anchor="middle" style="white-space: pre;" direction="ltr">Rega</text></g><g stroke-linecap="round" transform="translate(723.4645482873134 723.2403676338629) rotate(0 70.45455932617188 23.295440673828125)"><path d="M1.22 -0.61 C46.07 -0.67, 94.31 -0.01, 139.5 0.27 M0.68 0.4 C38.76 0.44, 76.17 0.05, 140.59 0.5 M140.9 -0.8 C139.48 13.34, 139.67 24.67, 139.74 47.46 M141 0.08 C141.91 10.02, 140.62 18.34, 140.22 46.27 M139.15 47.32 C88.27 48.58, 34.79 48.03, 1.46 48.38 M140.52 46.38 C88.49 46.9, 35.08 46.76, -0.67 45.66 M1.19 46.45 C-1.43 27.84, 1.47 13.08, 1.73 -0.47 M0.67 47.23 C-1.02 27.86, -0.78 10.59, 0.4 -0.31" stroke="#000000" stroke-width="1" fill="none"></path></g><g transform="translate(742.9191076134853 734.035808307691) rotate(0 51 12.5)"><text x="51" y="17" font-family="Virgil, Segoe UI Emoji" font-size="20px" fill="#000000" text-anchor="middle" style="white-space: pre;" direction="ltr">PlanoRega</text></g><g stroke-linecap="round" transform="translate(1552.9215539455522 364.2363210855825) rotate(0 70.45455932617188 23.295440673828125)"><path d="M1.64 -1.85 C34.94 -1.31, 68.12 1.62, 142.02 1.5 M0.78 -0.3 C45.87 -1.65, 92.25 -0.37, 141.72 0.82 M142.47 1.39 C139.77 18.32, 140.45 33.16, 139.76 48.39 M141.76 0.28 C140.55 18.59, 141.95 34.95, 140.1 45.94 M141.32 45.24 C99.65 46.28, 62.49 44.83, -1.3 46.51 M140.29 47.52 C103.16 47.1, 64.86 45.81, -0.93 46.08 M0.76 46.59 C0.04 29.45, -0.72 14.47, -0.71 -1.85 M0.29 46.18 C-0.34 37.59, 0.51 27.21, 0.51 0.37" stroke="#000000" stroke-width="1" fill="none"></path></g><g transform="translate(1589.876113271724 375.03176175941064) rotate(0 33.5 12.5)"><text x="33.5" y="17" font-family="Virgil, Segoe UI Emoji" font-size="20px" fill="#000000" text-anchor="middle" style="white-space: pre;" direction="ltr">Cliente</text></g><g stroke-linecap="round" transform="translate(1313.2540246119192 813.6915468135896) rotate(0 70.4545593261719 23.295440673828125)"><path d="M-1.36 -1.28 C48.05 1.24, 94.52 -1.6, 140.83 -0.55 M0.92 0.61 C35.29 1.55, 68.64 -0.06, 140.4 0.54 M140.9 -0.31 C140.46 9.39, 141.97 20.21, 139.06 44.69 M140.5 -0.55 C141.59 12.23, 140.75 24.37, 141.28 46.03 M139.68 46.41 C95.15 48.34, 49.7 47.81, -0.09 46.61 M141.56 47.52 C111.77 47.24, 81.81 47.21, -0.41 46.23 M-1.59 48.55 C2.02 30.78, -0.74 12.38, 0.56 0.77 M0.43 45.73 C0.78 31.69, -0.94 16.36, 0.81 0.07" stroke="#000000" stroke-width="1" fill="none"></path></g><g transform="translate(1348.2085839380911 824.4869874874178) rotate(0 35.50000000000003 12.5)"><text x="35.5" y="17" font-family="Virgil, Segoe UI Emoji" font-size="20px" fill="#000000" text-anchor="middle" style="white-space: pre;" direction="ltr">Edificio</text></g><g stroke-linecap="round" transform="translate(1867.5894392116888 704.2620334107269) rotate(0 70.45455932617188 23.295440673828125)"><path d="M-1.11 0.35 C37.21 1.2, 75.21 -0.7, 139.9 0.54 M0.01 -0.91 C29.97 0.72, 61.2 0.99, 141.28 -0.28 M140.18 1.35 C140.36 11.69, 139.17 29.08, 142.84 47.9 M141.3 0.28 C141.06 12.2, 141.35 23.22, 141.76 46.98 M141.05 48.5 C111.89 47.39, 80.36 48.87, 0.64 48.38 M141.04 45.68 C85.82 45.99, 30.5 45.99, 0.93 47.02 M2 45.63 C0.77 37.24, 2.12 23.75, 0.09 -0.79 M0.93 47.25 C-0.04 27.06, 0.64 8.79, -0.65 0.08" stroke="#000000" stroke-width="1" fill="none"></path></g><g transform="translate(1886.0439985378607 715.057474084555) rotate(0 52 12.5)"><text x="52" y="17" font-family="Virgil, Segoe UI Emoji" font-size="20px" fill="#000000" text-anchor="middle" style="white-space: pre;" direction="ltr">Encomenda</text></g><g stroke-linecap="round" transform="translate(1216.4521749320554 523.3885352706852) rotate(0 70.45455932617188 23.295440673828125)"><path d="M1.91 0.91 C46.96 -0.79, 95.74 0.54, 142.7 1.89 M-0.91 0.52 C53.77 0.64, 106.96 0.75, 141.34 -0.58 M139.95 0.4 C142.51 12.06, 140.31 20.71, 140.12 48.59 M141.56 0.14 C140.3 16.61, 140.66 30.92, 140.99 45.94 M142.35 48.19 C108.57 46.5, 71.47 46.36, -1.34 45.58 M141.65 46.86 C104.5 46.31, 67.57 46.43, -0.87 46.09 M0.66 47.66 C-0.41 33.57, -0.1 19.56, 0.15 -0.77 M-0.85 46.34 C-0.41 36.63, 0.41 26.2, 0.38 0.06" stroke="#000000" stroke-width="1" fill="none"></path></g><g transform="translate(1246.9067342582273 534.1839759445133) rotate(0 40 12.5)"><text x="40" y="17" font-family="Virgil, Segoe UI Emoji" font-size="20px" fill="#000000" text-anchor="middle" style="white-space: pre;" direction="ltr">Produto</text></g><g stroke-linecap="round" transform="translate(169.20899690996703 56.07235843432704) rotate(0 70.45455932617188 23.295440673828125)"><path d="M-1.17 1.44 C34.76 2.5, 67.03 -0.59, 141.5 -1.34 M-0.26 0.74 C35.44 -1.32, 70.41 -1.9, 141.11 -0.87 M141.91 0.66 C141.96 11.41, 141.74 23.38, 141.59 46.74 M141.31 -0.85 C140.3 11.78, 141.03 24.79, 141.39 46.97 M138.98 44.78 C96.93 46.43, 53.77 45.29, 0.01 48.39 M140.05 45.77 C107.52 45.94, 72.86 46.5, -0.31 45.62 M1.72 47.22 C-1.02 29.27, 0.09 14.28, -1.78 -1.06 M0.19 45.66 C-0.8 36.27, 0.85 26.87, -0.67 0.15" stroke="#000000" stroke-width="1" fill="none"></path></g><g transform="translate(207.1635562361389 66.86779910815517) rotate(0 32.5 12.5)"><text x="32.5" y="17" font-family="Virgil, Segoe UI Emoji" font-size="20px" fill="#000000" text-anchor="middle" style="white-space: pre;" direction="ltr">Sensor</text></g><g stroke-linecap="round" transform="translate(462.17457903769696 143.77006787302912) rotate(0 70.45455932617188 23.295440673828125)"><path d="M0.76 0.13 C47.36 -1.56, 95.94 -2.49, 140.09 0.46 M0.9 -0.6 C36.46 -0.77, 72.09 -0.82, 141.39 0.42 M138.96 0.78 C141.73 13.12, 143.09 25.6, 139.98 45.07 M140.38 -0.79 C140.47 14.72, 140.93 27.84, 139.98 46.57 M141.21 47.74 C88.66 44.32, 36.51 44.41, 1.46 44.69 M140.52 45.71 C108.4 47.03, 76.74 47.26, 0.34 47.11 M0.27 48.57 C-0.66 35.27, -1.16 21.46, -0.44 0.31 M0.87 47 C-0.14 27.25, -0.46 10.18, 0.89 0.4" stroke="#000000" stroke-width="1" fill="none"></path></g><g transform="translate(493.62913836386883 154.56550854685725) rotate(0 39 12.5)"><text x="39" y="17" font-family="Virgil, Segoe UI Emoji" font-size="20px" fill="#000000" text-anchor="middle" style="white-space: pre;" direction="ltr">Medicao</text></g><g stroke-linecap="round" transform="translate(73.91347994219359 132.77699405444423) rotate(0 62 17.5)"><path d="M64.48 0.5 C75.23 0.66, 89.2 2.62, 98.55 4.22 C107.9 5.83, 116.5 7.5, 120.56 10.14 C124.63 12.78, 125.2 16.67, 122.92 20.07 C120.64 23.48, 114.61 28.05, 106.91 30.55 C99.2 33.04, 87.61 34.43, 76.7 35.05 C65.79 35.67, 51.92 35.47, 41.46 34.27 C30.99 33.07, 20.72 30.28, 13.91 27.86 C7.09 25.44, 1.8 22.91, 0.57 19.74 C-0.66 16.56, 1.33 11.53, 6.55 8.8 C11.78 6.06, 21.35 4.87, 31.93 3.31 C42.51 1.75, 62.63 -0.11, 70.05 -0.57 C77.48 -1.03, 76.58 0.29, 76.48 0.53 M39.9 0.49 C49.33 -0.98, 62.65 0.21, 73.62 1.1 C84.6 1.98, 97.42 3.55, 105.75 5.78 C114.07 8, 121.16 11.6, 123.58 14.46 C126 17.31, 123.94 19.96, 120.27 22.9 C116.6 25.84, 110.51 30.29, 101.55 32.1 C92.59 33.91, 77.68 33.83, 66.52 33.76 C55.36 33.7, 44.31 32.89, 34.59 31.72 C24.87 30.55, 13.75 29.38, 8.19 26.77 C2.64 24.16, 0.68 19.37, 1.26 16.05 C1.85 12.74, 5.66 9.5, 11.69 6.88 C17.71 4.26, 32.82 0.97, 37.41 0.33 C42.01 -0.3, 38.55 2.63, 39.27 3.07" stroke="#000000" stroke-width="1" fill="none"></path></g><g transform="translate(116.41347994219359 137.77699405444423) rotate(0 19.5 12.5)"><text x="19.5" y="17" font-family="Virgil, Segoe UI Emoji" font-size="20px" fill="#000000" text-anchor="middle" style="white-space: pre;" direction="ltr">tipo</text></g><g stroke-linecap="round"><g transform="translate(191.93612398516234 105.50419742358486) rotate(0 -9.480371659072091 15.639447092264888)"><path d="M-1.01 -0.77 C-4.11 4.75, -15.68 26.79, -18.9 32.05 M0.66 1.45 C-2.53 6.66, -16.53 25.03, -19.62 30.04" stroke="#000000" stroke-width="1" fill="none"></path></g></g><g stroke-linecap="round" transform="translate(258.98156465899046 136.18596011889736) rotate(0 53.409080505371094 30.11363983154297)"><path d="M53.33 -0.17 C72.65 10.97, 92.49 23.45, 108.37 29.5 M53.21 0.79 C67.35 7.73, 79.39 15.46, 106.94 31.86 M106.39 32.16 C85.31 40.93, 65.23 55.61, 54.66 58.88 M107.18 31.47 C89.36 40.3, 71.69 50.41, 53.63 60.54 M52.03 58.37 C38.54 49.48, 17.85 43.35, -0.54 31.54 M53.76 59.68 C41.77 52.89, 30.46 45.97, 0.2 30.16 M-0.42 29.54 C14.22 23.48, 26.95 15.41, 52.56 0.9 M-0.93 31.33 C12.83 23.05, 26.81 15.55, 54.94 0.72" stroke="#000000" stroke-width="1" fill="none"></path></g><g transform="translate(279.39064516436156 153.79959995044032) rotate(0 33 12.5)"><text x="33" y="17" font-family="Virgil, Segoe UI Emoji" font-size="20px" fill="#000000" text-anchor="middle" style="white-space: pre;" direction="ltr">produz</text></g><g stroke-linecap="round"><g transform="translate(233.98156465899046 105.50419742358486) rotate(0 -0.7595180838168858 31.7942292085418)"><path d="M-1.12 0.39 C-1.33 10.74, -1.17 52.25, -0.96 62.62 M0.49 -0.45 C0.08 10.03, -1.9 53.32, -2.01 64.03" stroke="#000000" stroke-width="1" fill="none"></path></g></g><g stroke-linecap="round"><g transform="translate(230.05089918826047 167.98553993713313) rotate(0 15.559075542311177 -0.2808868208434454)"><path d="M0 -0.52 C5.57 -0.49, 26.99 -0.54, 32.57 -0.57 M-1.45 1.83 C4 1.56, 25.67 -1.62, 31.42 -2.39" stroke="#000000" stroke-width="1" fill="none"></path></g></g><g stroke-linecap="round"><g transform="translate(364.42326248186987 167.23602757193066) rotate(0 47.668888651810846 -0.32803332715295497)"><path d="M-0.54 -0.29 C15.28 -0.53, 79.8 -0.34, 95.87 -0.46 M1.38 -1.48 C17.03 -1.05, 79.68 0.63, 95.38 0.83" stroke="#000000" stroke-width="1" fill="none"></path></g></g><g transform="translate(220.64604514655207 104.2653789094993) rotate(0 3.5 12.5)"><text x="0" y="17" font-family="Virgil, Segoe UI Emoji" font-size="20px" fill="#000000" text-anchor="start" style="white-space: pre;" direction="ltr">1</text></g><g transform="translate(442.3289057426987 141.63476702663752) rotate(0 7.5 12.5)"><text x="0" y="17" font-family="Virgil, Segoe UI Emoji" font-size="20px" fill="#000000" text-anchor="start" style="white-space: pre;" direction="ltr">N</text></g><g stroke-linecap="round" transform="translate(279.11897643507393 907.2182530900943) rotate(0 62 17.5)"><path d="M62.04 0.02 C72.61 -0.15, 85.85 1.63, 95.28 3.24 C104.72 4.84, 113.9 6.83, 118.66 9.66 C123.42 12.49, 125.71 16.83, 123.85 20.22 C121.98 23.61, 114.97 27.56, 107.46 30.02 C99.95 32.48, 89.42 34.25, 78.79 35 C68.15 35.75, 54.33 35.42, 43.66 34.53 C32.98 33.63, 21.79 31.94, 14.74 29.63 C7.68 27.31, 2.83 23.84, 1.33 20.63 C-0.17 17.41, 1.11 13.31, 5.75 10.33 C10.4 7.36, 18.86 4.51, 29.2 2.79 C39.53 1.08, 60.96 0.43, 67.76 0.05 C74.55 -0.34, 70.39 0.17, 69.99 0.48 M83.73 1.93 C93.68 2.93, 104 5.98, 110.58 8.4 C117.17 10.82, 122.07 13.57, 123.23 16.45 C124.38 19.33, 122.57 22.94, 117.5 25.69 C112.43 28.45, 102.91 31.37, 92.8 32.96 C82.68 34.54, 68.01 35.33, 56.79 35.2 C45.57 35.07, 34.23 34.27, 25.48 32.18 C16.73 30.08, 8.16 25.51, 4.29 22.64 C0.41 19.76, 0.05 18, 2.25 14.91 C4.46 11.81, 9.8 6.57, 17.53 4.09 C25.26 1.61, 37.6 0.47, 48.63 0.02 C59.66 -0.43, 77.84 1.29, 83.71 1.38 C89.59 1.47, 84.06 0.25, 83.88 0.56" stroke="#000000" stroke-width="1" fill="none"></path></g><g transform="translate(289.11897643507393 912.2182530900943) rotate(0 52 12.5)"><text x="52" y="17" font-family="Virgil, Segoe UI Emoji" font-size="20px" fill="#000000" text-anchor="middle" style="white-space: pre;" direction="ltr">fornecedor</text></g><g stroke-linecap="round"><g transform="translate(502.5809832348549 902.1044755074131) rotate(0 -14.643272125460982 28.040757373310782)"><path d="M-0.98 0.73 C-5.87 10.05, -24.66 46.94, -29.56 56.02 M0.71 0.07 C-4.24 9.02, -24.7 44.82, -29.99 54.21" stroke="#000000" stroke-width="1" fill="none"></path></g></g><g stroke-linecap="round"><g transform="translate(444.91595098347636 889.666922508598) rotate(0 -27.520451990249228 12.261788520117648)"><path d="M-0.19 -0.74 C-8.94 3.35, -44.73 19.5, -53.64 23.73 M-1.76 1.49 C-10.6 5.85, -46.02 21.71, -54.85 25.26" stroke="#000000" stroke-width="1" fill="none"></path></g></g><g stroke-linecap="round" transform="translate(1467.3373002403066 264.45762759469267) rotate(0 52.01157836660832 18.65632949822253)"><path d="M60.4 0.65 C70.04 1, 82.82 3.44, 90.06 5.86 C97.31 8.28, 102.51 11.57, 103.89 15.19 C105.27 18.81, 103.14 24.06, 98.32 27.57 C93.51 31.08, 84.11 34.55, 75.01 36.25 C65.91 37.95, 53.77 38.4, 43.69 37.77 C33.62 37.13, 21.63 35.08, 14.54 32.44 C7.46 29.8, 2.56 25.71, 1.18 21.92 C-0.2 18.13, 1.61 13.2, 6.25 9.71 C10.89 6.22, 19.28 2.52, 29.01 0.97 C38.74 -0.59, 58.46 0.42, 64.65 0.37 C70.83 0.32, 66.34 0.25, 66.12 0.68 M59.64 1.19 C69.5 1.65, 81.35 4.13, 88.71 6.27 C96.08 8.4, 102.04 10.49, 103.83 13.99 C105.61 17.49, 104.05 23.76, 99.41 27.26 C94.77 30.75, 85.13 33.31, 75.99 34.97 C66.84 36.63, 54.48 37.87, 44.53 37.23 C34.57 36.58, 23.67 33.55, 16.24 31.09 C8.8 28.62, 1.68 25.99, -0.08 22.43 C-1.84 18.87, 1.23 12.95, 5.68 9.75 C10.14 6.54, 17.69 4.58, 26.66 3.22 C35.64 1.86, 54.07 1.97, 59.56 1.58 C65.04 1.19, 60.01 0.61, 59.57 0.88" stroke="#000000" stroke-width="1" fill="none"></path></g><g transform="translate(1496.348878606915 270.6139570929152) rotate(0 23 12.5)"><text x="23" y="17" font-family="Virgil, Segoe UI Emoji" font-size="20px" fill="#000000" text-anchor="middle" style="white-space: pre;" direction="ltr">nome</text></g><g stroke-linecap="round" transform="translate(1580.4059983717154 253.7161136080387) rotate(0 52.01157836660832 18.65632949822253)"><path d="M69.35 1.1 C78.93 1.88, 89.48 3.83, 95.42 6.91 C101.35 9.98, 105.33 15.71, 104.95 19.54 C104.57 23.37, 99.45 26.99, 93.14 29.89 C86.83 32.79, 76.62 35.81, 67.1 36.95 C57.58 38.09, 45.7 38.14, 36.03 36.75 C26.35 35.36, 15.02 31.66, 9.06 28.62 C3.11 25.58, 0.03 22.07, 0.3 18.51 C0.57 14.94, 4.68 10.28, 10.7 7.23 C16.71 4.19, 26.43 1.18, 36.39 0.26 C46.35 -0.66, 64.43 1.55, 70.44 1.69 C76.44 1.84, 72.6 0.8, 72.43 1.14 M54.94 -1.3 C64.6 -1.25, 77.41 2.81, 85.22 5.45 C93.03 8.09, 99.21 11.02, 101.78 14.53 C104.35 18.03, 104.29 23.13, 100.63 26.49 C96.98 29.85, 88.75 32.7, 79.83 34.69 C70.91 36.69, 57.27 38.92, 47.13 38.47 C36.98 38.02, 26.33 34.7, 18.95 31.98 C11.56 29.26, 5.32 25.38, 2.82 22.14 C0.32 18.91, 0.3 15.98, 3.95 12.55 C7.61 9.13, 16.23 3.47, 24.75 1.57 C33.27 -0.32, 49.81 1.23, 55.06 1.2 C60.31 1.16, 56.27 1.48, 56.26 1.37" stroke="#000000" stroke-width="1" fill="none"></path></g><g transform="translate(1619.9175767383238 259.87244310626124) rotate(0 12.5 12.5)"><text x="12.5" y="17" font-family="Virgil, Segoe UI Emoji" font-size="20px" fill="#000000" text-anchor="middle" style="white-space: pre;" direction="ltr">nif</text></g><g stroke-linecap="round" transform="translate(1712.2440601591547 265.36217604105195) rotate(0 52.01157836660832 18.656329498222533)"><path d="M40 0.46 C49.3 -0.68, 63.47 -0.76, 72.75 0.61 C82.03 1.98, 90.66 5.32, 95.68 8.67 C100.7 12.02, 103.59 16.93, 102.87 20.72 C102.14 24.52, 97.83 28.73, 91.3 31.42 C84.78 34.12, 73.53 36.19, 63.7 36.89 C53.87 37.59, 41.83 37, 32.34 35.62 C22.85 34.25, 12.02 31.8, 6.76 28.65 C1.51 25.49, -0.19 20.4, 0.8 16.71 C1.79 13.03, 4.42 9.33, 12.69 6.52 C20.97 3.71, 42.42 0.76, 50.45 -0.13 C58.48 -1.02, 60.86 0.9, 60.87 1.2 M52.82 1.49 C62.78 1.5, 75.92 2.71, 84.04 4.57 C92.16 6.43, 98.72 9.39, 101.56 12.63 C104.41 15.87, 104.18 20.64, 101.12 24.01 C98.06 27.38, 91.4 30.8, 83.2 32.87 C75.01 34.95, 62.43 36.45, 51.93 36.46 C41.44 36.47, 28.67 34.94, 20.22 32.94 C11.76 30.94, 4.1 27.77, 1.22 24.46 C-1.67 21.14, -0.46 16.82, 2.88 13.06 C6.22 9.3, 12.65 4.24, 21.25 1.91 C29.86 -0.42, 49.16 -0.67, 54.51 -0.92 C59.87 -1.18, 53.86 -0.28, 53.4 0.38" stroke="#000000" stroke-width="1" fill="none"></path></g><g transform="translate(1739.7556385257626 271.51850553927454) rotate(0 24.5 12.5)"><text x="24.5" y="17" font-family="Virgil, Segoe UI Emoji" font-size="20px" fill="#000000" text-anchor="middle" style="white-space: pre;" direction="ltr">email</text></g><g stroke-linecap="round" transform="translate(1765.0471812816136 323.0271988033307) rotate(0 52.01157836660832 18.656329498222526)"><path d="M47.64 1.03 C57.19 0.63, 69.99 1.71, 78.65 3.43 C87.3 5.14, 95.66 8.17, 99.58 11.33 C103.5 14.49, 104.43 18.81, 102.14 22.41 C99.86 26, 93.53 30.54, 85.88 32.9 C78.23 35.26, 66.59 36.14, 56.22 36.58 C45.85 37.01, 32.51 37.27, 23.69 35.5 C14.86 33.73, 6.96 29.65, 3.26 25.97 C-0.44 22.29, -1.16 17.01, 1.49 13.43 C4.14 9.86, 9.53 6.63, 19.17 4.51 C28.81 2.4, 50.92 1.41, 59.31 0.75 C67.7 0.09, 69.86 0.29, 69.51 0.56 M39.55 0.24 C48.82 -0.49, 63.1 0.84, 72.84 2.41 C82.58 3.99, 92.83 6.61, 98 9.68 C103.16 12.76, 104.89 17.38, 103.83 20.86 C102.77 24.34, 98.42 27.97, 91.64 30.57 C84.87 33.18, 73.5 35.35, 63.19 36.46 C52.87 37.58, 39.1 38.81, 29.76 37.24 C20.41 35.67, 11.94 30.62, 7.12 27.07 C2.29 23.51, -0.27 19.26, 0.81 15.93 C1.89 12.59, 6.99 9.57, 13.59 7.04 C20.19 4.51, 35.93 1.8, 40.43 0.75 C44.93 -0.31, 40.39 0.25, 40.58 0.72" stroke="#000000" stroke-width="1" fill="none"></path></g><g transform="translate(1781.0587596482214 329.1835283015532) rotate(0 36 12.5)"><text x="36" y="17" font-family="Virgil, Segoe UI Emoji" font-size="20px" fill="#000000" text-anchor="middle" style="white-space: pre;" direction="ltr">morada</text></g><g stroke-linecap="round" transform="translate(1809.0309052342961 367.8023895990647) rotate(0 92 24.5)"><path d="M94.93 0 C107.53 -0.08, 121.38 1.37, 132.98 3.02 C144.58 4.68, 156.25 7.22, 164.53 9.92 C172.8 12.62, 179.81 15.88, 182.63 19.24 C185.45 22.6, 184.78 26.65, 181.45 30.09 C178.12 33.52, 171.06 37.21, 162.66 39.85 C154.25 42.48, 143.23 44.32, 131.03 45.9 C118.83 47.47, 102.74 49.22, 89.45 49.31 C76.17 49.4, 63.13 47.94, 51.33 46.44 C39.53 44.94, 26.85 43.09, 18.66 40.32 C10.48 37.55, 5.01 33.41, 2.23 29.82 C-0.55 26.24, -1.33 22.28, 1.99 18.79 C5.31 15.29, 13.33 11.58, 22.14 8.86 C30.94 6.13, 41.53 3.96, 54.82 2.42 C68.11 0.88, 93.06 -0.15, 101.87 -0.37 C110.68 -0.59, 107.95 0.69, 107.67 1.11 M101.99 0.2 C114.59 0.13, 130.81 2.59, 142.28 4.66 C153.75 6.74, 163.86 9.96, 170.8 12.65 C177.74 15.34, 182.52 17.62, 183.92 20.8 C185.33 23.98, 183.55 28.19, 179.24 31.71 C174.93 35.22, 167.73 39.22, 158.06 41.89 C148.39 44.56, 133.87 46.65, 121.2 47.74 C108.53 48.82, 95.05 48.76, 82.05 48.39 C69.06 48.02, 54.42 47.44, 43.23 45.52 C32.04 43.6, 22.06 39.85, 14.91 36.88 C7.75 33.92, 1.87 31.37, 0.29 27.72 C-1.28 24.07, 0.71 18.35, 5.47 14.97 C10.22 11.59, 19.19 9.79, 28.82 7.43 C38.45 5.07, 51.05 1.9, 63.23 0.82 C75.4 -0.26, 95.27 0.78, 101.87 0.96 C108.47 1.15, 102.62 1.86, 102.81 1.94" stroke="#000000" stroke-width="1" fill="none"></path></g><g transform="translate(1819.5309052342961 379.8023895990647) rotate(0 81.5 12.5)"><text x="81.5" y="17" font-family="Virgil, Segoe UI Emoji" font-size="20px" fill="#000000" text-anchor="middle" style="white-space: pre;" direction="ltr">morada_entrega</text></g><g stroke-linecap="round" transform="translate(1770.6255691126066 427.0862546806552) rotate(0 65 18.5)"><path d="M47.97 1.23 C57.65 0.1, 71.72 -0.07, 82.23 0.7 C92.73 1.47, 103.47 3.55, 111 5.83 C118.54 8.11, 124.51 11.58, 127.43 14.39 C130.35 17.21, 131.14 19.79, 128.52 22.73 C125.89 25.67, 119.43 29.7, 111.69 32.03 C103.95 34.36, 92.58 35.93, 82.07 36.71 C71.56 37.49, 59.08 37.57, 48.63 36.7 C38.18 35.83, 27.1 33.63, 19.37 31.47 C11.64 29.31, 5.08 26.85, 2.25 23.73 C-0.59 20.61, -0.28 15.79, 2.37 12.74 C5.01 9.7, 8.48 7.44, 18.11 5.47 C27.75 3.5, 51.34 1.83, 60.2 0.93 C69.07 0.03, 71.18 -0.2, 71.31 0.08 M58.86 0.41 C68.88 -0.29, 82.44 -0.24, 92.36 0.94 C102.28 2.12, 112.19 4.74, 118.39 7.5 C124.59 10.26, 128.78 14.44, 129.56 17.52 C130.34 20.61, 127.32 23.24, 123.06 26.01 C118.8 28.78, 112.42 32.33, 104 34.15 C95.59 35.98, 83.74 36.86, 72.58 36.97 C61.43 37.08, 47.32 36.05, 37.06 34.83 C26.79 33.6, 16.93 31.98, 11.01 29.62 C5.08 27.25, 2.21 23.55, 1.5 20.64 C0.79 17.72, 2.53 15.13, 6.75 12.11 C10.97 9.09, 18.35 4.39, 26.81 2.51 C35.27 0.64, 52.23 1.29, 57.5 0.86 C62.77 0.43, 58.26 -0.3, 58.44 -0.07" stroke="#000000" stroke-width="1" fill="none"></path></g><g transform="translate(1779.1255691126066 433.0862546806552) rotate(0 56.5 12.5)"><text x="56.5" y="17" font-family="Virgil, Segoe UI Emoji" font-size="20px" fill="#000000" text-anchor="middle" style="white-space: pre;" direction="ltr">cod_postal</text></g><g stroke-linecap="round"><g transform="translate(1528.394420005107 304.03166245158593) rotate(0 20.757837728221148 30.606529739038542)"><path d="M0.74 0.98 C7.63 10.92, 35.28 49.69, 41.84 59.47 M-0.32 0.45 C6.46 10.57, 34.93 50.7, 41.49 60.76" stroke="#000000" stroke-width="1" fill="none"></path></g></g><g stroke-linecap="round"><g transform="translate(1622.241466023656 290.4634167779969) rotate(0 -6.6981883732109395 36.83752704218522)"><path d="M0.33 0.36 C-1.59 12.48, -10.61 60.6, -12.66 72.93 M-0.96 -0.5 C-2.95 11.76, -11.8 62.02, -13.72 74.18" stroke="#000000" stroke-width="1" fill="none"></path></g></g><g stroke-linecap="round"><g transform="translate(1736.4407334715404 301.77028659113773) rotate(0 -28.976807251672255 29.786768173544843)"><path d="M0.65 -0.25 C-9.02 9.54, -48.94 49.72, -58.6 59.62 M-0.48 -1.43 C-9.71 8.46, -46.81 50.75, -56.38 61" stroke="#000000" stroke-width="1" fill="none"></path></g></g><g stroke-linecap="round"><g transform="translate(1765.838572211867 349.2591227259497) rotate(0 -37.11526038805158 13.276752423864039)"><path d="M0.95 -0.81 C-11.37 3.77, -61.58 22.89, -73.98 27.36 M-0.02 1.38 C-12.52 5.59, -62.82 21.13, -75.18 25.35" stroke="#000000" stroke-width="1" fill="none"></path></g></g><g stroke-linecap="round"><g transform="translate(1692.3440512738496 389.96383127941715) rotate(0 56.952774746810746 2.4691011839994275)"><path d="M0.27 -0.01 C19.49 1.01, 95.7 5.2, 114.95 6 M-1.05 -1.06 C18.01 -0.41, 94.42 2.93, 113.81 4.06" stroke="#000000" stroke-width="1" fill="none"></path></g></g><g stroke-linecap="round"><g transform="translate(1691.2132542189768 405.79345281345434) rotate(0 42.73259736112038 16.421135384515154)"><path d="M0.3 -1.02 C14.36 4.55, 69.86 27.11, 84.12 32.87 M-1.01 1.06 C13.48 6.79, 72.04 28.25, 86.47 33.86" stroke="#000000" stroke-width="1" fill="none"></path></g></g><g stroke-linecap="round" transform="translate(2126.312560932329 612.9898462445392) rotate(0 97.5 30)"><path d="M133.22 2.86 C146.36 3.9, 158.76 6.66, 168.19 9.73 C177.62 12.79, 185.31 17.21, 189.79 21.25 C194.26 25.29, 197.02 29.68, 195.01 33.97 C193 38.25, 185.88 43.27, 177.73 46.94 C169.58 50.61, 158.17 53.84, 146.11 55.99 C134.04 58.14, 119.4 59.47, 105.33 59.83 C91.25 60.19, 74.86 59.54, 61.66 58.14 C48.46 56.74, 35.71 54.69, 26.14 51.43 C16.57 48.17, 8.3 42.77, 4.22 38.59 C0.14 34.41, -0.47 30.71, 1.65 26.36 C3.77 22.02, 9.12 16.08, 16.92 12.53 C24.72 8.99, 36.52 7.27, 48.46 5.1 C60.39 2.92, 73.71 -0.1, 88.52 -0.52 C103.33 -0.94, 128.36 1.92, 137.29 2.55 C146.22 3.18, 142.74 2.87, 142.12 3.25 M139.17 1.79 C152.29 2.74, 165.9 6.19, 174.63 9.74 C183.37 13.3, 188.41 18.47, 191.59 23.14 C194.76 27.81, 196.42 33.39, 193.68 37.76 C190.95 42.12, 183.88 46.28, 175.19 49.33 C166.49 52.37, 154.2 54.09, 141.51 56.03 C128.81 57.97, 113.23 60.89, 99.02 60.94 C84.81 60.99, 69.12 58.19, 56.24 56.31 C43.35 54.43, 30.76 53.1, 21.7 49.66 C12.64 46.22, 5.1 39.81, 1.86 35.65 C-1.38 31.49, -0.82 28.72, 2.25 24.7 C5.32 20.67, 11.7 15.03, 20.29 11.48 C28.88 7.94, 40.8 5.14, 53.8 3.41 C66.8 1.68, 84.12 1.16, 98.28 1.08 C112.45 1.01, 131.79 2.73, 138.78 2.95 C145.76 3.18, 140.72 2.07, 140.18 2.43" stroke="#000000" stroke-width="1" fill="none"></path></g><g transform="translate(2131.812560932329 617.9898462445392) rotate(0 92 25)"><text x="92" y="17" font-family="Virgil, Segoe UI Emoji" font-size="20px" fill="#000000" text-anchor="middle" style="white-space: pre;" direction="ltr">data_vencimento_</text><text x="92" y="42" font-family="Virgil, Segoe UI Emoji" font-size="20px" fill="#000000" text-anchor="middle" style="white-space: pre;" direction="ltr">pagamento</text></g><g stroke-linecap="round" transform="translate(2136.8267404491035 690.3971593857882) rotate(0 97.5 30)"><path d="M74.09 0.14 C86.89 -1.06, 105.47 0.47, 119.31 1.45 C133.16 2.43, 146.34 3.62, 157.16 6.01 C167.99 8.41, 177.85 11.99, 184.27 15.82 C190.68 19.66, 195.5 24.66, 195.63 29.02 C195.76 33.39, 191.18 37.91, 185.03 42.01 C178.87 46.1, 169.48 50.72, 158.7 53.6 C147.91 56.47, 133.89 58.32, 120.3 59.25 C106.72 60.17, 90.88 60, 77.19 59.15 C63.5 58.31, 49.51 56.78, 38.16 54.17 C26.82 51.55, 15.35 47.49, 9.12 43.48 C2.9 39.47, 0.82 34.33, 0.8 30.11 C0.79 25.89, 3.23 22.17, 9.04 18.15 C14.85 14.12, 23.65 8.83, 35.67 5.96 C47.69 3.1, 72.27 1.79, 81.16 0.95 C90.05 0.11, 88.51 0.39, 89 0.94 M80.73 0.69 C93.39 -0.58, 108.29 -1.39, 121.87 -0.29 C135.45 0.81, 151.51 4.23, 162.21 7.29 C172.91 10.35, 180.7 14.25, 186.06 18.07 C191.43 21.89, 194.68 25.76, 194.42 30.22 C194.15 34.69, 190.95 40.99, 184.45 44.88 C177.95 48.77, 166.7 51.27, 155.41 53.57 C144.12 55.88, 130.71 57.99, 116.69 58.74 C102.66 59.48, 84.93 59.07, 71.24 58.06 C57.56 57.05, 45.03 55.16, 34.58 52.67 C24.14 50.17, 14.26 47.2, 8.59 43.08 C2.91 38.96, -0.14 32.19, 0.53 27.93 C1.2 23.66, 6.34 21.29, 12.61 17.5 C18.88 13.71, 26.99 7.78, 38.14 5.2 C49.3 2.62, 72.75 2.51, 79.56 2.01 C86.37 1.5, 78.68 1.73, 79.02 2.17" stroke="#000000" stroke-width="1" fill="none"></path></g><g transform="translate(2163.3267404491035 707.8971593857882) rotate(0 71 12.5)"><text x="71" y="17" font-family="Virgil, Segoe UI Emoji" font-size="20px" fill="#000000" text-anchor="middle" style="white-space: pre;" direction="ltr">data_entrega</text></g><g stroke-linecap="round" transform="translate(2161.1232474649505 793.162565710146) rotate(0 97.5 30)"><path d="M65.02 1.16 C77.1 -0.6, 95.19 0.49, 109.28 1.2 C123.36 1.9, 137.62 3.11, 149.53 5.41 C161.44 7.7, 173.11 11.52, 180.74 14.98 C188.37 18.44, 193.78 22.01, 195.32 26.16 C196.85 30.3, 194.86 35.63, 189.97 39.87 C185.09 44.11, 176.21 48.38, 166.01 51.59 C155.81 54.8, 142.03 57.66, 128.77 59.13 C115.5 60.6, 100.5 61.1, 86.4 60.43 C72.3 59.76, 56.16 57.54, 44.14 55.11 C32.11 52.68, 21.58 49.45, 14.25 45.87 C6.93 42.28, 1.72 37.85, 0.17 33.59 C-1.39 29.33, 0.23 24.58, 4.93 20.32 C9.63 16.06, 16.14 11.36, 28.36 8.04 C40.59 4.73, 67.61 1.51, 78.28 0.42 C88.95 -0.67, 91.75 1.14, 92.38 1.49 M92.86 0.72 C106.2 0.21, 122.3 0.63, 135.25 2.06 C148.2 3.5, 161.33 6.2, 170.57 9.36 C179.81 12.51, 186.99 16.92, 190.71 20.97 C194.43 25.02, 195.28 29.06, 192.9 33.65 C190.52 38.25, 184.46 44.78, 176.45 48.54 C168.45 52.29, 156.92 54.17, 144.88 56.17 C132.84 58.17, 118.24 60.24, 104.19 60.54 C90.14 60.84, 73.99 59.93, 60.6 57.97 C47.22 56.01, 33.21 51.82, 23.88 48.78 C14.54 45.74, 8.12 43.65, 4.6 39.73 C1.09 35.81, 0.56 29.62, 2.79 25.26 C5.02 20.89, 9.92 17, 17.98 13.56 C26.04 10.12, 38.76 6.67, 51.14 4.6 C63.53 2.53, 85.31 1.84, 92.28 1.13 C99.24 0.41, 92.72 -0.03, 92.95 0.3" stroke="#000000" stroke-width="1" fill="none"></path></g><g transform="translate(2222.6232474649505 810.662565710146) rotate(0 36 12.5)"><text x="36" y="17" font-family="Virgil, Segoe UI Emoji" font-size="20px" fill="#000000" text-anchor="middle" style="white-space: pre;" direction="ltr">morada</text></g><g stroke-linecap="round" transform="translate(1982.9150344594007 851.9327197048915) rotate(0 97.5 30)"><path d="M117.25 0.12 C130.58 0.49, 144.84 3, 156.21 5.72 C167.59 8.45, 179.04 12.41, 185.5 16.47 C191.96 20.53, 194.81 25.72, 194.97 30.08 C195.12 34.43, 192.3 38.9, 186.42 42.62 C180.53 46.33, 170.75 49.53, 159.66 52.36 C148.56 55.19, 133.44 58.26, 119.86 59.59 C106.29 60.92, 91.85 61.28, 78.21 60.33 C64.58 59.39, 49.28 56.59, 38.06 53.9 C26.84 51.21, 17.15 48.05, 10.9 44.21 C4.65 40.38, 0.75 35.24, 0.54 30.9 C0.34 26.57, 3.91 22.06, 9.7 18.21 C15.48 14.36, 24.48 10.57, 35.25 7.79 C46.02 5, 59.17 2.62, 74.33 1.5 C89.49 0.39, 116.01 0.97, 126.2 1.09 C136.39 1.21, 135.68 1.84, 135.45 2.21 M136.28 1.68 C148.7 2.74, 160.86 6.56, 170.27 9.89 C179.67 13.21, 188.65 17.12, 192.72 21.62 C196.79 26.12, 197.7 32.62, 194.7 36.91 C191.7 41.19, 183.2 43.96, 174.73 47.33 C166.25 50.69, 156.32 55.14, 143.85 57.08 C131.38 59.03, 114.19 58.78, 99.91 58.99 C85.63 59.21, 70.71 60.09, 58.18 58.37 C45.66 56.65, 34 52.08, 24.77 48.69 C15.55 45.3, 6.59 42.09, 2.84 38.01 C-0.91 33.93, -0.56 28.54, 2.25 24.22 C5.07 19.89, 11.32 15.56, 19.74 12.06 C28.16 8.55, 40.53 4.99, 52.8 3.18 C65.07 1.36, 79.32 1.4, 93.37 1.15 C107.41 0.9, 129.93 1.44, 137.07 1.69 C144.21 1.93, 137.12 1.98, 136.22 2.61" stroke="#000000" stroke-width="1" fill="none"></path></g><g transform="translate(1995.4150344594007 869.4327197048915) rotate(0 85 12.5)"><text x="85" y="17" font-family="Virgil, Segoe UI Emoji" font-size="20px" fill="#000000" text-anchor="middle" style="white-space: pre;" direction="ltr">data_pagamento</text></g><g stroke-linecap="round" transform="translate(1941.5544825216798 535.2592206240163) rotate(0 114 26.5)"><path d="M110.75 -0.27 C125.33 -0.84, 143.76 0.89, 158.11 2.38 C172.45 3.86, 186.24 6.03, 196.8 8.65 C207.37 11.28, 216.41 14.88, 221.52 18.12 C226.62 21.37, 228.57 24.59, 227.45 28.13 C226.33 31.68, 222.28 36.15, 214.81 39.42 C207.33 42.69, 195.07 45.72, 182.61 47.73 C170.15 49.75, 154.94 50.56, 140.02 51.49 C125.11 52.41, 108.24 53.97, 93.1 53.3 C77.96 52.63, 61.84 49.47, 49.19 47.45 C36.54 45.44, 25.4 44.13, 17.21 41.23 C9.01 38.34, 2.02 33.84, 0.01 30.08 C-2 26.33, 0.47 22.04, 5.13 18.7 C9.79 15.35, 17.89 12.77, 27.98 10.02 C38.06 7.28, 51.08 3.95, 65.62 2.23 C80.17 0.52, 106.18 -0.03, 115.27 -0.24 C124.35 -0.46, 120.28 0.39, 120.15 0.92 M157.23 2.87 C171.18 3.64, 185.49 5.65, 196.24 8.04 C207 10.43, 216.36 13.9, 221.75 17.23 C227.15 20.56, 229.94 24.15, 228.61 28.03 C227.28 31.91, 221.13 37.17, 213.79 40.5 C206.44 43.83, 196.5 46.09, 184.52 48.03 C172.54 49.98, 157.01 51.28, 141.9 52.19 C126.8 53.1, 109.21 54.17, 93.9 53.49 C78.6 52.8, 63.04 50.44, 50.08 48.07 C37.11 45.69, 24.38 42.1, 16.11 39.24 C7.85 36.38, 2.59 34.48, 0.49 30.91 C-1.62 27.34, -1.05 21.5, 3.46 17.82 C7.98 14.13, 17.37 11.44, 27.58 8.81 C37.8 6.18, 50.87 3.64, 64.74 2.02 C78.62 0.4, 95.49 -0.82, 110.85 -0.89 C126.2 -0.96, 149.47 1.19, 156.89 1.61 C164.3 2.03, 156.14 0.9, 155.33 1.62" stroke="#000000" stroke-width="1" fill="none"></path></g><g transform="translate(1953.5544825216798 549.2592206240163) rotate(0 102 12.5)"><text x="102" y="17" font-family="Virgil, Segoe UI Emoji" font-size="20px" fill="#000000" text-anchor="middle" style="white-space: pre;" direction="ltr">cod_postal_entrega</text></g><g stroke-linecap="round"><g transform="translate(2010.7982959075252 705.6392268993952) rotate(0 16.412785169281506 -59.71934719799941)"><path d="M-0.93 0.39 C4.7 -19.7, 27.89 -100.14, 33.75 -119.83 M0.79 -0.44 C6.22 -20.49, 27.11 -99, 32.57 -118.85" stroke="#000000" stroke-width="1" fill="none"></path></g></g><g stroke-linecap="round"><g transform="translate(2009.368541897404 719.1375780478782) rotate(0 61.68931909509229 -33.634484593031914)"><path d="M0.22 -0.79 C20.84 -12.22, 104.1 -57.73, 124.5 -68.69 M-1.12 1.42 C19.33 -9.91, 102.9 -56.14, 123.92 -67.78" stroke="#000000" stroke-width="1" fill="none"></path></g></g><g stroke-linecap="round"><g transform="translate(2012.4923640204765 745.2336062333416) rotate(0 60.91184005979699 -7.265625198888586)"><path d="M-0.62 -0.2 C19.47 -2.77, 99.98 -11.99, 120.06 -14.33 M1.26 -1.35 C21.78 -3.19, 102.26 -10.84, 122.44 -12.76" stroke="#000000" stroke-width="1" fill="none"></path></g></g><g stroke-linecap="round"><g transform="translate(2008.5217274683594 753.2798870884997) rotate(0 83.18542526646945 27.14646958032364)"><path d="M0.8 0.55 C28.16 9.53, 136.74 44.22, 164.32 53.15 M-0.24 -0.2 C27.48 9.02, 138.88 45.77, 166.61 54.49" stroke="#000000" stroke-width="1" fill="none"></path></g></g><g stroke-linecap="round"><g transform="translate(1971.5835284217494 754.2323013473165) rotate(0 43.289115796169995 48.53346985837686)"><path d="M0.15 0.44 C14.77 16.83, 73.44 81.43, 87.8 97.45 M-1.23 -0.38 C13.26 15.76, 72.05 79.4, 87.02 95.76" stroke="#000000" stroke-width="1" fill="none"></path></g></g><g stroke-linecap="round" transform="translate(1592.5912014349276 565.55898003168) rotate(0 69.58579780094612 31.242612823372554)"><path d="M71.91 -1.39 C94.01 12.17, 120.87 24.9, 139.3 31.03 M70.33 -0.31 C91.84 10.35, 114.51 20.5, 139.26 32.02 M137.37 32.27 C114.46 44.32, 89.63 52.96, 70.43 61.25 M138.72 31.03 C115.77 42.1, 92.02 52.01, 70.93 62.54 M69.56 61.9 C53.24 54.32, 35.31 47.44, 0.8 32.34 M69.06 61.7 C51.49 54.39, 34.46 46.3, 0.24 32.15 M0.94 31.12 C25.62 20.42, 54.01 6.85, 68.04 1.29 M-0.87 32.15 C24.1 21.67, 49.14 9.21, 69.56 0.24" stroke="#000000" stroke-width="1" fill="none"></path></g><g transform="translate(1644.1769992358736 584.3015928550525) rotate(0 18 12.5)"><text x="18" y="17" font-family="Virgil, Segoe UI Emoji" font-size="20px" fill="#000000" text-anchor="middle" style="white-space: pre;" direction="ltr">faz</text></g><g stroke-linecap="round"><g transform="translate(1663.1448268160239 412.61851734398954) rotate(0 -0.7043139801031089 75.64010650729357)"><path d="M-0.18 0.48 C-0.02 25.5, 0.18 125.36, 0.33 150.33 M-1.74 -0.31 C-1.65 24.84, -0.85 126.31, -0.51 151.59" stroke="#000000" stroke-width="1" fill="none"></path></g></g><g stroke-linecap="round"><g transform="translate(1662.1770469083176 630.8844822125493) rotate(0 1.5157147463483511 48.85168467419257)"><path d="M-0.72 -1.05 C-0.21 15.01, 2.91 81.09, 3.75 97.55 M1.1 1.01 C1.41 17.73, 2.42 82.47, 2.9 98.75" stroke="#000000" stroke-width="1" fill="none"></path></g></g><g stroke-linecap="round"><g transform="translate(1666.437437873282 731.8680031014287) rotate(0 100.18674602284 -0.7030826274437914)"><path d="M0.03 0.05 C33.26 -0.05, 166.12 -1.54, 199.48 -1.45 M-1.42 -0.97 C32.19 -0.9, 168.33 -0.47, 201.79 -0.54" stroke="#000000" stroke-width="1" fill="none"></path></g></g><g transform="translate(1633.7745676017378 412.2068790339829) rotate(0 3.5 12.5)"><text x="0" y="17" font-family="Virgil, Segoe UI Emoji" font-size="20px" fill="#000000" text-anchor="start" style="white-space: pre;" direction="ltr">1</text></g><g transform="translate(1845.2946708137933 708.6663680889253) rotate(0 7.5 12.5)"><text x="0" y="17" font-family="Virgil, Segoe UI Emoji" font-size="20px" fill="#000000" text-anchor="start" style="white-space: pre;" direction="ltr">N</text></g><g stroke-linecap="round" transform="translate(1425.5740346090272 475.75276870626095) rotate(0 58.479721944657854 20.39990088050331)"><path d="M32.43 2.25 C40.99 0.15, 53.37 -1, 63.79 -0.63 C74.21 -0.26, 86.73 2.03, 94.95 4.47 C103.17 6.9, 109.6 10.34, 113.1 13.98 C116.59 17.61, 118.23 22.61, 115.91 26.27 C113.59 29.94, 107.06 33.63, 99.17 35.99 C91.28 38.35, 79.14 39.78, 68.56 40.45 C57.98 41.12, 45.32 41.44, 35.7 40.01 C26.09 38.58, 16.93 34.98, 10.88 31.85 C4.83 28.73, -0.23 24.87, -0.59 21.25 C-0.95 17.62, 2.54 13.24, 8.74 10.08 C14.95 6.91, 30.9 3.73, 36.63 2.24 C42.35 0.74, 42.43 0.93, 43.08 1.11 M63.04 -0.74 C72.77 -0.41, 83.65 2.96, 91.92 5.16 C100.19 7.36, 108.81 9.15, 112.64 12.49 C116.47 15.82, 117.2 21.55, 114.9 25.15 C112.61 28.74, 106.13 31.78, 98.85 34.06 C91.57 36.33, 81.06 37.94, 71.24 38.8 C61.41 39.66, 49.64 40.27, 39.89 39.21 C30.14 38.16, 19.47 35.41, 12.73 32.46 C5.99 29.51, 0.27 25.09, -0.55 21.5 C-1.37 17.9, 2.81 14.1, 7.79 10.91 C12.78 7.72, 20.12 4.35, 29.36 2.38 C38.6 0.4, 57.75 -0.68, 63.23 -0.95 C68.71 -1.23, 62.27 0.45, 62.25 0.73" stroke="#000000" stroke-width="1" fill="none"></path></g><g transform="translate(1457.5537565536852 483.6526695867645) rotate(0 26.5 12.5)"><text x="26.5" y="17" font-family="Virgil, Segoe UI Emoji" font-size="20px" fill="#000000" text-anchor="middle" style="white-space: pre;" direction="ltr">preco</text></g><g stroke-linecap="round" transform="translate(1376.755986114902 544.623552100835) rotate(0 58.47972194465788 20.39990088050331)"><path d="M80.4 1.94 C89.87 3.02, 99.63 5.56, 105.7 8.35 C111.78 11.15, 116.19 15, 116.85 18.7 C117.52 22.41, 114.97 27.31, 109.68 30.6 C104.39 33.9, 94.78 36.84, 85.1 38.46 C75.43 40.09, 62.12 40.69, 51.65 40.34 C41.18 39.99, 30.47 38.64, 22.28 36.36 C14.09 34.09, 5.79 30.3, 2.49 26.68 C-0.8 23.06, -0.19 18.17, 2.52 14.66 C5.23 11.15, 11.02 8.17, 18.78 5.64 C26.53 3.1, 38.24 0.15, 49.05 -0.55 C59.85 -1.25, 77.61 1.04, 83.6 1.45 C89.59 1.85, 85.38 1.46, 85 1.85 M61.85 -0.31 C72.06 -0.44, 83.58 2.51, 92.19 4.89 C100.8 7.27, 109.63 10.78, 113.53 13.96 C117.42 17.15, 117.36 20.56, 115.55 24.02 C113.75 27.47, 109.79 32.14, 102.71 34.67 C95.62 37.2, 83.44 38.39, 73.05 39.2 C62.65 40, 50.4 40.41, 40.33 39.5 C30.27 38.58, 19.27 36.27, 12.69 33.7 C6.1 31.12, 1.96 27.62, 0.8 24.06 C-0.35 20.49, 1.02 15.72, 5.76 12.29 C10.5 8.87, 19.93 5.39, 29.26 3.48 C38.59 1.57, 56.31 1.31, 61.73 0.86 C67.16 0.42, 62.02 0.47, 61.8 0.81" stroke="#000000" stroke-width="1" fill="none"></path></g><g transform="translate(1420.23570805956 552.5234529813381) rotate(0 15 12.5)"><text x="15" y="17" font-family="Virgil, Segoe UI Emoji" font-size="20px" fill="#000000" text-anchor="middle" style="white-space: pre;" direction="ltr">iva</text></g><g stroke-linecap="round" transform="translate(689.4897509749555 332.4854819674832) rotate(0 96.5 30)"><path d="M-0.13 -1.27 C58.92 -0.93, 117 0.04, 193.59 1.87 M0.39 0.92 C54.19 -0.04, 107.51 -0.85, 193.58 -0.99 M191.22 0.56 C193.35 18.94, 195.33 34.21, 191.54 58.57 M192.52 0.22 C193.99 12.93, 192.82 28.61, 192.97 59.21 M191.08 58.69 C136.98 58.13, 85.84 58.45, -1.9 60.25 M193.18 59.9 C117.58 62.21, 43.34 61.87, -0.08 59.91 M1.68 60.88 C1.48 40.12, 0.28 16.58, 0.75 1.72 M0.15 60.87 C0.15 46.62, -0.01 34.52, -0.21 0.78" stroke="#000000" stroke-width="1" fill="none"></path></g><g transform="translate(757.9897509749555 349.9854819674832) rotate(0 28 12.5)"><text x="28" y="17" font-family="Virgil, Segoe UI Emoji" font-size="20px" fill="#000000" text-anchor="middle" style="white-space: pre;" direction="ltr">Setor</text></g><g stroke-linecap="round" transform="translate(993.9082841217858 342.3031330339985) rotate(0 53.71977855222269 22.439909230198566)"><path d="M55.92 -1.17 C71.69 5.5, 87.44 14.4, 105.99 23.44 M54.69 -0.59 C74.39 7.94, 94.05 16.58, 106.66 22.89 M106.11 23.75 C91.38 31.37, 75.42 37.82, 54.96 44.05 M107.75 23.91 C89.88 29.62, 73.61 38.04, 54.81 44.63 M52.47 46.13 C44.5 40.56, 30.4 37.34, -1.13 23.65 M54.7 44.84 C41.63 40.48, 31.32 34.86, -0.52 22.57 M-0.42 22.35 C14.76 17.1, 31.71 8.2, 54.89 1.82 M0.31 23.6 C22.13 14.64, 43.45 5.6, 54.74 -0.28" stroke="#000000" stroke-width="1" fill="none"></path></g><g transform="translate(1017.6280626740084 352.24304226419713) rotate(0 30 12.5)"><text x="30" y="17" font-family="Virgil, Segoe UI Emoji" font-size="20px" fill="#000000" text-anchor="middle" style="white-space: pre;" direction="ltr">possui</text></g><g stroke-linecap="round"><g transform="translate(884.9218504741419 362.70305674155804) rotate(0 55.31447527325864 1.4123633374892108)"><path d="M0.26 0.51 C18.78 1.11, 92.97 2.82, 111.69 3.1 M-1.06 -0.27 C17.26 0, 91.92 0.6, 110.83 1.17" stroke="#000000" stroke-width="1" fill="none"></path></g></g><g stroke-linecap="round"><g transform="translate(1097.0809839861804 365.4230374384101) rotate(0 59.098436611384074 0.2764119702118535)"><path d="M-0.05 -1.01 C19.85 -0.89, 99.98 1.27, 119.74 1.57 M-1.54 1.07 C18.18 0.73, 98.44 -0.56, 118.82 -0.45" stroke="#000000" stroke-width="1" fill="none"></path></g></g><g transform="translate(895.8018645697749 336.5231137308507) rotate(0 3.5 12.5)"><text x="0" y="17" font-family="Virgil, Segoe UI Emoji" font-size="20px" fill="#000000" text-anchor="start" style="white-space: pre;" direction="ltr">1</text></g><g transform="translate(1198.7665253463979 342.6114337583361) rotate(0 7.5 12.5)"><text x="0" y="17" font-family="Virgil, Segoe UI Emoji" font-size="20px" fill="#000000" text-anchor="start" style="white-space: pre;" direction="ltr">N</text></g><g stroke-linecap="round" transform="translate(453.78944202946377 729.8478671685889) rotate(0 86.67711983406673 28.451299201072857)"><path d="M88.7 0.77 C109.65 8.26, 128.95 14.38, 173.97 27.51 M86.57 -0.37 C106.34 6.87, 125.2 12.91, 173.55 28.38 M174.19 29.33 C149.28 36.08, 123.71 41.75, 85.41 56.04 M173.11 29.95 C148.78 37.22, 126.1 43.3, 86.57 57.33 M87.24 58.87 C68.76 50.64, 50.08 43.09, -0.15 28.18 M87.63 56.88 C52.67 46.6, 21.22 35.06, 0.18 29.34 M1.32 29.68 C25.76 21.61, 50.54 12.2, 86.97 0.32 M-0.7 28.61 C18.67 24.21, 37.33 16.83, 87.51 -0.07" stroke="#000000" stroke-width="1" fill="none"></path></g><g transform="translate(489.9665618635305 745.7991663696616) rotate(0 50.5 12.5)"><text x="50.5" y="17" font-family="Virgil, Segoe UI Emoji" font-size="20px" fill="#000000" text-anchor="middle" style="white-space: pre;" direction="ltr">faz parte</text></g><g stroke-linecap="round"><g transform="translate(541.1282396131691 848.9462194331304) rotate(0 0.32746589659660685 -29.53563162126858)"><path d="M0.74 0.96 C0.91 -8.52, 0.83 -48.14, 1 -58.01 M-0.33 0.41 C-0.35 -9.35, -0.37 -50.46, -0.12 -60.03" stroke="#000000" stroke-width="1" fill="none"></path></g></g><g stroke-linecap="round"><g transform="translate(546.4214839190387 729.8478671685889) rotate(0 0.5921724511980813 -24.767083841450187)"><path d="M0.91 0.61 C0.89 -7.48, -0.44 -39.95, -0.61 -48.35 M-0.06 -0.11 C0.35 -8.57, 1.92 -42.02, 1.78 -50.15" stroke="#000000" stroke-width="1" fill="none"></path></g></g><g transform="translate(546.4214839190387 824.566486515522) rotate(0 3.5 12.5)"><text x="0" y="17" font-family="Virgil, Segoe UI Emoji" font-size="20px" fill="#000000" text-anchor="start" style="white-space: pre;" direction="ltr">1</text></g><g transform="translate(551.7147726477178 676.3552017230784) rotate(0 7.5 12.5)"><text x="0" y="17" font-family="Virgil, Segoe UI Emoji" font-size="20px" fill="#000000" text-anchor="start" style="white-space: pre;" direction="ltr">N</text></g><g stroke-linecap="round"><g transform="translate(1359.0576422406639 539.0878509110537) rotate(0 35.13554932482745 -15.593474056433934)"><path d="M0.91 0.1 C12.68 -4.96, 58.89 -25.95, 70.34 -31.28 M-0.07 -0.9 C11.62 -5.66, 58.25 -24.68, 69.73 -29.68" stroke="#000000" stroke-width="1" fill="none"></path></g></g><g stroke-linecap="round"><g transform="translate(1373.801550604337 567.9928255066488) rotate(0 -4.767048707168897 -4.382669790106462)"><path d="M0.82 -1.08 C-0.78 -2.59, -7.75 -8.15, -9.82 -9.73 M-0.2 0.97 C-1.87 -0.28, -8.85 -6.41, -10.36 -8.18" stroke="#000000" stroke-width="1" fill="none"></path></g></g><g stroke-linecap="round" transform="translate(715.2942016644912 198.24837964451442) rotate(0 79.5 28)"><path d="M81.8 -0.58 C110.76 12.6, 137.17 21.9, 157.61 30.47 M79.26 0.11 C104.84 8.65, 127.91 17.1, 158.75 28.84 M159.21 30.44 C128.38 40.7, 102.21 48.85, 80.86 56.55 M158.17 28.61 C138.98 35.96, 120.9 42.27, 80.77 55.63 M78.12 56.92 C51.24 47.55, 21.41 37.18, -1.63 30.38 M80.24 55.84 C52.61 47.41, 25.26 37.73, -0.63 29.39 M-0.57 28.08 C17.24 21.83, 38.4 16.62, 79.76 1.17 M-0.64 28.89 C25.48 20.46, 49.28 11.27, 79.4 0.43" stroke="#000000" stroke-width="1" fill="none"></path></g><g transform="translate(742.2942016644912 213.74837964451442) rotate(0 52.5 12.5)"><text x="52.5" y="17" font-family="Virgil, Segoe UI Emoji" font-size="20px" fill="#000000" text-anchor="middle" style="white-space: pre;" direction="ltr"> aplicada</text></g><g stroke-linecap="round"><g transform="translate(791.6840888577591 192.79197221417616) rotate(0 -2.0113519331530085 -21.412045245170287)"><path d="M-0.22 0.59 C-0.54 -6.43, -2.5 -34.52, -2.81 -41.64 M-1.8 -0.14 C-2.2 -7.56, -3.68 -36.66, -3.8 -43.42" stroke="#000000" stroke-width="1" fill="none"></path></g></g><g stroke-linecap="round"><g transform="translate(798.5045523535485 250.08441050519366) rotate(0 -1.325301453839991 40.856896568862474)"><path d="M-0.23 0.1 C-0.55 13.68, -1.32 69.01, -1.89 82.61 M-1.82 -0.9 C-2.22 12.85, -2.49 66.91, -2.4 80.89" stroke="#000000" stroke-width="1" fill="none"></path></g></g><g transform="translate(802.5107783191334 153.99355650491725) rotate(0 3.5 12.5)"><text x="0" y="17" font-family="Virgil, Segoe UI Emoji" font-size="20px" fill="#000000" text-anchor="start" style="white-space: pre;" direction="ltr">1</text></g><g transform="translate(800.4613859122893 309.3063135634476) rotate(0 7.5 12.5)"><text x="0" y="17" font-family="Virgil, Segoe UI Emoji" font-size="20px" fill="#000000" text-anchor="start" style="white-space: pre;" direction="ltr">N</text></g><g stroke-linecap="round" transform="translate(692.26998744479 9.999999999999972) rotate(0 71.56829766182761 24.74791695819944)"><path d="M53.66 1.39 C64.27 0.23, 78.72 0.41, 90.18 1.36 C101.65 2.32, 114.15 4.31, 122.45 7.12 C130.74 9.94, 136.98 14.26, 139.94 18.24 C142.89 22.21, 143.21 26.94, 140.2 30.97 C137.19 35, 130.18 39.46, 121.88 42.41 C113.58 45.36, 102 47.56, 90.42 48.66 C78.83 49.76, 63.97 50.17, 52.38 49 C40.8 47.82, 29.19 44.62, 20.91 41.61 C12.63 38.6, 5.61 34.78, 2.68 30.93 C-0.25 27.07, 0.15 22.4, 3.33 18.47 C6.51 14.55, 12.86 10.39, 21.79 7.38 C30.72 4.36, 50.06 1.58, 56.9 0.38 C63.74 -0.82, 62.62 -0.22, 62.84 0.18 M55.62 1.85 C66.19 0.28, 80 -0.86, 91.52 0.28 C103.03 1.42, 116.47 5.73, 124.71 8.69 C132.95 11.65, 138.38 14.19, 140.96 18.04 C143.54 21.89, 143.39 27.76, 140.2 31.79 C137.01 35.82, 130.76 39.37, 121.8 42.22 C112.83 45.08, 98.12 48.11, 86.41 48.91 C74.69 49.71, 62.9 48.12, 51.53 47.01 C40.15 45.9, 26.23 45.18, 18.15 42.24 C10.07 39.31, 5.66 33.37, 3.05 29.39 C0.44 25.4, -0.83 22.26, 2.49 18.32 C5.81 14.37, 14.01 8.66, 22.96 5.74 C31.92 2.82, 50.89 1.77, 56.22 0.79 C61.56 -0.19, 54.87 -0.28, 54.97 -0.14" stroke="#000000" stroke-width="1" fill="none"></path></g><g transform="translate(744.3382851066176 22.247916958199426) rotate(0 19.5 12.5)"><text x="19.5" y="17" font-family="Virgil, Segoe UI Emoji" font-size="20px" fill="#000000" text-anchor="middle" style="white-space: pre;" direction="ltr">tipo</text></g><g stroke-linecap="round"><g transform="translate(795.274773350248 102.30304041418867) rotate(0 -10.847170448606626 -21.587807049896313)"><path d="M-0.88 0.12 C-4.59 -6.79, -18.03 -34.4, -21.53 -41.74 M0.85 -0.86 C-3.08 -8.06, -18.59 -36.25, -22.55 -43.3" stroke="#000000" stroke-width="1" fill="none"></path></g></g><g stroke-linecap="round" transform="translate(444.7908403160665 333.72942335974506) rotate(0 80.93234461330067 30.767695106910367)"><path d="M79.31 -0.19 C108.01 11.39, 138.67 23.88, 160.47 32.98 M81.46 0.75 C103.85 10.55, 128.5 17.85, 162.33 31.84 M161.63 29.34 C140.04 39.69, 117.48 48.39, 82.48 59.58 M162.78 30.83 C133.92 42.43, 106.81 52.41, 81.48 61.99 M82.37 60.15 C61.37 55.16, 43.96 46.25, 0.69 30.15 M81.09 60.65 C61.37 54.17, 42.42 46.52, 0.5 30.32 M1.45 30.45 C21.65 20.96, 41.49 12.59, 80.67 -0.7 M0.77 30.45 C16.56 23.94, 32.28 17.88, 81.94 -0.03" stroke="#000000" stroke-width="1" fill="none"></path></g><g transform="translate(474.2231849293672 351.9971184666554) rotate(0 51.5 12.5)"><text x="51.5" y="17" font-family="Virgil, Segoe UI Emoji" font-size="20px" fill="#000000" text-anchor="middle" style="white-space: pre;" direction="ltr"> aplicado</text></g><g stroke-linecap="round"><g transform="translate(539.7693002631191 617.3271271143778) rotate(0 -3.9712520363958674 -108.10879339242521)"><path d="M0.86 -0.7 C-0.37 -36.87, -6.39 -181.84, -7.91 -217.77 M-0.15 1.55 C-1.48 -34.44, -7.3 -180.13, -8.8 -216.79" stroke="#000000" stroke-width="1" fill="none"></path></g></g><g stroke-linecap="round"><g transform="translate(605.5988908467946 365.2727871316904) rotate(0 41.84963922063227 0.48543846599825713)"><path d="M-0.83 1.13 C13.44 1.51, 70.34 1.23, 84.53 1.26 M0.93 0.68 C15.14 0.82, 69.82 -0.16, 83.56 -0.36" stroke="#000000" stroke-width="1" fill="none"></path></g></g><g transform="translate(511.67711450215756 578.0594993672811) rotate(0 3.5 12.5)"><text x="0" y="17" font-family="Virgil, Segoe UI Emoji" font-size="20px" fill="#000000" text-anchor="start" style="white-space: pre;" direction="ltr">1</text></g><g transform="translate(668.7041276422339 343.97077005497874) rotate(0 7.5 12.5)"><text x="0" y="17" font-family="Virgil, Segoe UI Emoji" font-size="20px" fill="#000000" text-anchor="start" style="white-space: pre;" direction="ltr">N</text></g><g stroke-linecap="round" transform="translate(10 49.84234898241334) rotate(0 69.5 28.5)"><path d="M55.12 -0.04 C65.58 -1.31, 78.91 0.33, 89.96 2.02 C101.02 3.72, 113.64 6.89, 121.46 10.13 C129.27 13.37, 134.47 17.1, 136.86 21.47 C139.24 25.83, 139.14 31.79, 135.76 36.32 C132.38 40.85, 125.25 45.22, 116.6 48.64 C107.94 52.06, 95.29 55.56, 83.83 56.85 C72.37 58.14, 58.82 57.88, 47.86 56.37 C36.89 54.87, 25.78 51.45, 18.05 47.84 C10.31 44.23, 3.8 39.28, 1.47 34.71 C-0.87 30.13, 0.5 25.01, 4.02 20.39 C7.54 15.77, 13.62 10.44, 22.57 7 C31.52 3.55, 51.37 0.82, 57.73 -0.3 C64.1 -1.42, 60.35 -0.18, 60.75 0.29 M95.33 3.22 C105.7 4.27, 116.16 7.27, 123.23 10.56 C130.3 13.85, 136.04 18.38, 137.75 22.98 C139.46 27.58, 137.76 33.34, 133.5 38.16 C129.24 42.99, 121.29 49.08, 112.19 51.93 C103.09 54.78, 90.43 54.73, 78.9 55.25 C67.38 55.77, 53.6 56.49, 43.04 55.06 C32.48 53.63, 22.75 50.25, 15.55 46.68 C8.35 43.11, 1.72 38.58, -0.15 33.63 C-2.03 28.68, -0.02 21.7, 4.28 17.01 C8.58 12.31, 16.69 8.11, 25.63 5.46 C34.57 2.81, 46.61 1.91, 57.92 1.11 C69.22 0.32, 87.23 0.24, 93.46 0.69 C99.68 1.14, 95.57 3.34, 95.28 3.83" stroke="#000000" stroke-width="1" fill="none"></path></g><g transform="translate(18.5 65.84234898241334) rotate(0 61 12.5)"><text x="61" y="17" font-family="Virgil, Segoe UI Emoji" font-size="20px" fill="#000000" text-anchor="middle" style="white-space: pre;" direction="ltr">identificador</text></g><g stroke-linecap="round"><g transform="translate(168.07633475667444 73.70747672764821) rotate(0 -9.443847168769707 1.167248503695248)"><path d="M-0.58 0.57 C-3.64 0.79, -16.15 0.83, -19.3 1.19 M1.31 -0.18 C-1.81 0.23, -16.6 2.32, -20.2 2.51" stroke="#000000" stroke-width="1" fill="none"></path></g></g><g stroke-linecap="round" transform="translate(738.1644194654876 518.4170639674317) rotate(0 62.17262994561969 31.086314972809788)"><path d="M63.24 1.23 C77.61 8.77, 92.88 14.16, 123.64 31.77 M62.61 -0.42 C80.9 10, 98.3 17.7, 124.88 32.09 M125.64 30.67 C103.24 42.14, 77.31 55.49, 62.59 61.65 M125.21 31.68 C104.3 41.06, 83.03 52.1, 63.94 62.35 M63.4 60.49 C39.31 51.31, 14.25 38.93, 1.05 30.52 M62.86 61.78 C48.4 55.37, 35.9 48.51, -0.99 32.11 M1.94 31.7 C15.71 23.84, 33.59 13.41, 63.65 0.1 M-0.55 32.72 C21.01 20.61, 43.38 8.62, 62.53 0.67" stroke="#000000" stroke-width="1" fill="none"></path></g><g transform="translate(770.3370494111073 537.0033789402414) rotate(0 30 12.5)"><text x="30" y="17" font-family="Virgil, Segoe UI Emoji" font-size="20px" fill="#000000" text-anchor="middle" style="white-space: pre;" direction="ltr">possui</text></g><g stroke-linecap="round"><g transform="translate(802.6832577184151 396.4179730043743) rotate(0 -1.3971718423871522 61.85213156728962)"><path d="M0.33 -0.18 C-0.34 20.6, -2.81 103, -3.12 123.78 M-0.96 -1.32 C-1.32 19.69, -0.66 103.82, -0.82 125.02" stroke="#000000" stroke-width="1" fill="none"></path></g></g><g stroke-linecap="round"><g transform="translate(803.8562831138175 578.2435249848693) rotate(0 0.8549160139440346 71.44260413100449)"><path d="M-0.67 -0.76 C-0.33 22.98, 2.06 118.27, 2.38 142.45 M1.18 1.46 C1.34 25.34, 1.05 120.12, 1.44 143.64" stroke="#000000" stroke-width="1" fill="none"></path></g></g><g transform="translate(783.9141425677135 474.72496321508487) rotate(0 3.5 12.5)"><text x="0" y="17" font-family="Virgil, Segoe UI Emoji" font-size="20px" fill="#000000" text-anchor="start" style="white-space: pre;" direction="ltr">1</text></g><g transform="translate(779.8275904908867 693.0215058811175) rotate(0 7.5 12.5)"><text x="0" y="17" font-family="Virgil, Segoe UI Emoji" font-size="20px" fill="#000000" text-anchor="start" style="white-space: pre;" direction="ltr">N</text></g><g stroke-linecap="round" transform="translate(713.1669784343179 832.5686196688919) rotate(0 71.56829766182761 24.747916958199426)"><path d="M69.16 -0.95 C80.38 -1.28, 94.62 0.69, 105.11 2.98 C115.6 5.26, 125.72 9.11, 132.08 12.74 C138.44 16.38, 142.86 20.95, 143.29 24.78 C143.71 28.61, 140.32 32.09, 134.6 35.74 C128.89 39.4, 119.17 44.43, 109 46.71 C98.82 48.98, 85.49 49.48, 73.56 49.37 C61.63 49.26, 47.87 48.07, 37.39 46.04 C26.92 44, 16.95 40.76, 10.71 37.18 C4.47 33.59, 0.15 28.43, -0.04 24.54 C-0.22 20.64, 3.76 17.38, 9.6 13.8 C15.44 10.21, 23.97 5.48, 35 3.02 C46.02 0.57, 68.21 -0.38, 75.72 -0.91 C83.24 -1.44, 80.36 -0.63, 80.08 -0.16 M101.71 3.05 C112.23 4.33, 123.81 6.75, 130.72 10.25 C137.63 13.75, 142.17 19.81, 143.16 24.06 C144.15 28.3, 141.99 32.43, 136.66 35.71 C131.33 38.99, 121.2 41.63, 111.17 43.74 C101.15 45.84, 88.27 48.02, 76.5 48.36 C64.72 48.7, 51.32 47.17, 40.52 45.76 C29.71 44.35, 18.2 43.04, 11.66 39.9 C5.12 36.75, 2.29 31.05, 1.26 26.88 C0.23 22.72, 0.62 18.57, 5.48 14.92 C10.34 11.26, 20.58 7.22, 30.42 4.96 C40.26 2.7, 52.37 1.9, 64.51 1.35 C76.64 0.79, 97.2 1.36, 103.23 1.63 C109.26 1.9, 101.43 2.42, 100.7 2.95" stroke="#000000" stroke-width="1" fill="none"></path></g><g transform="translate(755.7352760961455 844.8165366270912) rotate(0 29 12.5)"><text x="29" y="17" font-family="Virgil, Segoe UI Emoji" font-size="20px" fill="#000000" text-anchor="middle" style="white-space: pre;" direction="ltr">tempo</text></g><g stroke-linecap="round" transform="translate(867.4254491447132 809.9284183276354) rotate(0 71.56829766182761 24.747916958199426)"><path d="M75.79 0.76 C87.11 0.58, 99.87 2.01, 109.76 4.02 C119.65 6.02, 129.44 9.09, 135.13 12.79 C140.81 16.5, 144.33 21.88, 143.87 26.25 C143.4 30.62, 138.79 35.77, 132.35 39.02 C125.91 42.27, 115.96 43.98, 105.22 45.76 C94.48 47.54, 80.12 49.82, 67.92 49.7 C55.72 49.57, 42.01 47.18, 32.01 44.99 C22 42.8, 13.3 40.13, 7.9 36.56 C2.5 32.98, -0.78 27.58, -0.37 23.53 C0.04 19.48, 3.78 15.66, 10.37 12.23 C16.97 8.81, 27.76 4.85, 39.2 2.98 C50.64 1.1, 71.74 1.17, 79 0.97 C86.27 0.77, 82.93 1.5, 82.79 1.78 M89.83 0.48 C101.23 1.12, 114.88 4.87, 123.12 7.81 C131.35 10.76, 136.48 14.11, 139.25 18.14 C142.02 22.17, 142.3 28.25, 139.76 32.01 C137.22 35.77, 132 38.18, 124.01 40.7 C116.01 43.23, 103.53 45.99, 91.76 47.15 C80 48.32, 65.17 48.3, 53.4 47.69 C41.64 47.08, 29.56 46.34, 21.16 43.48 C12.76 40.61, 6.05 34.57, 2.98 30.5 C-0.08 26.44, -0.33 22.83, 2.76 19.08 C5.85 15.33, 12.99 11.08, 21.51 8.02 C30.03 4.95, 42.63 2, 53.88 0.69 C65.13 -0.61, 83.19 -0.02, 89 0.2 C94.81 0.42, 88.9 1.35, 88.72 2.01" stroke="#000000" stroke-width="1" fill="none"></path></g><g transform="translate(876.9937468065408 822.1763352858347) rotate(0 62 12.5)"><text x="62" y="17" font-family="Virgil, Segoe UI Emoji" font-size="20px" fill="#000000" text-anchor="middle" style="white-space: pre;" direction="ltr">periodicidade</text></g><g stroke-linecap="round" transform="translate(565.9468176128399 554.9033330110544) rotate(0 71.56829766182761 24.747916958199426)"><path d="M103.84 2.72 C114.4 4.08, 124.71 7.84, 131.37 11.39 C138.03 14.94, 143.31 19.82, 143.81 24.01 C144.31 28.2, 140 32.84, 134.4 36.55 C128.79 40.26, 120.12 43.97, 110.21 46.28 C100.29 48.58, 86.9 50.38, 74.89 50.38 C62.89 50.38, 48.89 48.41, 38.19 46.29 C27.49 44.16, 16.97 41.06, 10.69 37.66 C4.42 34.25, 0.86 29.96, 0.55 25.86 C0.25 21.76, 3.26 16.86, 8.86 13.03 C14.46 9.21, 24.25 5.15, 34.16 2.9 C44.07 0.66, 55.27 -0.6, 68.33 -0.44 C81.4 -0.27, 104.28 2.7, 112.56 3.89 C120.84 5.08, 118.83 6.45, 118 6.71 M45.3 1.09 C55.62 -1.02, 70.29 -1.81, 82.51 -1.14 C94.74 -0.47, 109.32 2.17, 118.67 5.13 C128.01 8.08, 134.54 12.43, 138.59 16.59 C142.64 20.75, 145.16 26.29, 142.97 30.08 C140.77 33.87, 133.21 36.55, 125.42 39.35 C117.64 42.15, 107.18 45.31, 96.27 46.88 C85.36 48.45, 71.93 49.39, 59.95 48.77 C47.97 48.15, 33.74 45.9, 24.4 43.15 C15.06 40.41, 7.77 35.97, 3.92 32.31 C0.06 28.66, -1.02 24.98, 1.28 21.24 C3.58 17.49, 10.23 13.38, 17.74 9.85 C25.25 6.31, 41.27 1.43, 46.32 0.04 C51.37 -1.35, 47.51 0.66, 48.05 1.48" stroke="#000000" stroke-width="1" fill="none"></path></g><g transform="translate(582.0151152746676 567.151249969254) rotate(0 55.5 12.5)"><text x="55.5" y="17" font-family="Virgil, Segoe UI Emoji" font-size="20px" fill="#000000" text-anchor="middle" style="white-space: pre;" direction="ltr">data_inicio</text></g><g stroke-linecap="round" transform="translate(565.4777728470068 492.4960822347041) rotate(0 71.56829766182761 24.747916958199454)"><path d="M75.78 0.99 C87.36 0.81, 100.91 2.08, 110.77 4.28 C120.63 6.47, 129.59 10.61, 134.94 14.16 C140.29 17.72, 143.24 21.68, 142.87 25.62 C142.5 29.56, 139.16 34.3, 132.73 37.81 C126.29 41.31, 114.84 44.72, 104.26 46.66 C93.67 48.61, 81.14 49.72, 69.22 49.47 C57.3 49.22, 42.94 47.37, 32.76 45.15 C22.58 42.94, 13.69 39.72, 8.14 36.19 C2.59 32.66, -1.06 28.02, -0.53 23.97 C-0.01 19.92, 4.65 15.54, 11.28 11.88 C17.91 8.22, 27.22 3.93, 39.24 2.01 C51.27 0.09, 74.61 0.39, 83.43 0.37 C92.26 0.34, 92.2 1.55, 92.19 1.88 M44.72 2.18 C54.87 0.55, 70.65 -0.52, 82.67 -0.01 C94.7 0.5, 107.58 2.43, 116.86 5.25 C126.15 8.06, 134.28 13, 138.39 16.88 C142.5 20.75, 143.28 24.63, 141.52 28.5 C139.75 32.37, 134.73 36.7, 127.81 40.11 C120.89 43.53, 111.22 47.44, 100 49.01 C88.77 50.59, 72.69 50.28, 60.48 49.57 C48.27 48.86, 36.12 47.48, 26.74 44.77 C17.36 42.07, 8.44 37.41, 4.21 33.32 C-0.01 29.22, -0.53 24.26, 1.39 20.2 C3.31 16.14, 8.49 11.88, 15.75 8.97 C23 6.07, 40.03 4.01, 44.91 2.77 C49.79 1.53, 44.47 1.32, 45.05 1.53" stroke="#000000" stroke-width="1" fill="none"></path></g><g transform="translate(589.5460705088344 504.74399919290346) rotate(0 47.5 12.5)"><text x="47.5" y="17" font-family="Virgil, Segoe UI Emoji" font-size="20px" fill="#000000" text-anchor="middle" style="white-space: pre;" direction="ltr">data_fim</text></g><g stroke-linecap="round" transform="translate(892.2944696196605 729.4559148927756) rotate(0 71.56829766182761 24.747916958199426)"><path d="M40.19 1.61 C50.23 -0.4, 66.25 -1.27, 78.44 -0.74 C90.63 -0.21, 103.77 2.13, 113.35 4.79 C122.93 7.44, 130.87 11.57, 135.93 15.18 C141 18.79, 144.74 22.64, 143.72 26.47 C142.7 30.29, 136.66 34.59, 129.8 38.12 C122.94 41.65, 113.17 45.81, 102.57 47.64 C91.97 49.48, 78.32 49.48, 66.2 49.14 C54.07 48.79, 39.81 47.98, 29.84 45.56 C19.87 43.13, 11.14 38.52, 6.37 34.59 C1.6 30.67, 0.3 26, 1.22 22.01 C2.14 18.02, 3.32 14.03, 11.89 10.66 C20.45 7.28, 43.66 3.59, 52.6 1.77 C61.54 -0.06, 65.09 -0.42, 65.54 -0.31 M96.47 1.75 C107.46 2.64, 119.58 4.65, 127.38 8 C135.19 11.34, 141.48 17.51, 143.27 21.8 C145.06 26.09, 142.63 30.22, 138.12 33.74 C133.61 37.26, 124.99 40.56, 116.22 42.9 C107.46 45.24, 97.13 46.77, 85.53 47.8 C73.92 48.83, 58.06 50.4, 46.6 49.08 C35.15 47.77, 24.54 43.29, 16.79 39.91 C9.03 36.54, 1.96 32.61, 0.06 28.83 C-1.84 25.05, 1.38 20.95, 5.4 17.21 C9.42 13.47, 15.1 8.97, 24.18 6.4 C33.26 3.83, 47.89 2.52, 59.91 1.77 C71.93 1.03, 90.41 1.82, 96.32 1.94 C102.23 2.05, 95.87 2.18, 95.38 2.46" stroke="#000000" stroke-width="1" fill="none"></path></g><g transform="translate(914.8627672814881 741.7038318509751) rotate(0 49 12.5)"><text x="49" y="17" font-family="Virgil, Segoe UI Emoji" font-size="20px" fill="#000000" text-anchor="middle" style="white-space: pre;" direction="ltr">tipo_rega</text></g><g stroke-linecap="round"><g transform="translate(755.7604698416611 537.1861397390076) rotate(0 -28.68000272650015 -6.329650284166519)"><path d="M0.95 0.06 C-8.6 -1.92, -47.5 -10.58, -57.4 -12.72 M-0.01 -0.95 C-9.7 -2.64, -48.97 -9.34, -58.31 -11.09" stroke="#000000" stroke-width="1" fill="none"></path></g></g><g stroke-linecap="round"><g transform="translate(748.7220811944923 554.7821507360552) rotate(0 -16.1744552660074 11.485818276259238)"><path d="M1.11 0.79 C-4.6 4.53, -27.63 19.28, -33.46 22.81 M0.23 0.16 C-5.15 3.51, -25.78 17.14, -31.07 20.97" stroke="#000000" stroke-width="1" fill="none"></path></g></g><g stroke-linecap="round"><g transform="translate(793.2986607639386 768.2806485244384) rotate(0 -1.4932790354574053 31.309123628287864)"><path d="M0.36 -0.98 C-0.15 9.59, -1.98 52.82, -2.79 63.6 M-0.91 1.11 C-1.53 11.29, -3.15 51.53, -3.35 61.61" stroke="#000000" stroke-width="1" fill="none"></path></g></g><g stroke-linecap="round"><g transform="translate(846.0867331342075 769.4537132989665) rotate(0 18.211453477195775 26.164031488831313)"><path d="M0.06 0.41 C6.16 8.96, 31.59 43.07, 37.8 51.75 M-1.37 -0.42 C4.49 8.21, 30.68 43.72, 36.98 52.74" stroke="#000000" stroke-width="1" fill="none"></path></g></g><g stroke-linecap="round"><g transform="translate(866.0288736803116 750.684598148265) rotate(0 13.484547419235303 3.498731455852351)"><path d="M1.1 0.66 C5.7 1.72, 22.32 4.91, 26.75 6.03 M0.22 -0.04 C4.72 1.17, 21.17 5.56, 25.68 7.04" stroke="#000000" stroke-width="1" fill="none"></path></g></g><g stroke-linecap="round" transform="translate(1234.3722367394146 429.2638654494137) rotate(0 55.134201919325164 26.98056857239851)"><path d="M55.52 0.9 C66.87 4.67, 76.3 10.34, 110.32 28.32 M55.33 0.3 C77.63 12.26, 99.04 21.42, 110.33 27.67 M111.24 26.37 C100.28 34.1, 87.35 39.82, 57.83 55 M110.11 27.15 C90.71 36.24, 71.16 47, 56.19 53.62 M55.49 52.44 C39.76 46.51, 24.77 36.86, 1.41 28.43 M56.52 54.87 C44.83 49.11, 32.61 43.3, -0.27 26.15 M1 25.65 C20.24 19.92, 39.68 7.01, 55.27 -0.98 M-0.68 27.54 C15.29 18.51, 30 11.62, 55.61 -0.74" stroke="#000000" stroke-width="1" fill="none"></path></g><g transform="translate(1259.5064386587396 443.7444340218122) rotate(0 30 12.5)"><text x="30" y="17" font-family="Virgil, Segoe UI Emoji" font-size="20px" fill="#000000" text-anchor="middle" style="white-space: pre;" direction="ltr">possui</text></g><g stroke-linecap="round"><g transform="translate(1288.3333738842116 430.4368908448161) rotate(0 -1.9989906053700963 -21.396024790362617)"><path d="M0.64 0.8 C-0.22 -6.57, -3.18 -36.11, -4.03 -43.6 M-0.48 0.18 C-1.54 -7.06, -3.85 -34.94, -4.64 -42.16" stroke="#000000" stroke-width="1" fill="none"></path></g></g><g stroke-linecap="round"><g transform="translate(1293.0256329823242 480.8788730451544) rotate(0 0.15785186741794632 20.763079025368256)"><path d="M-0.91 -0.16 C-0.8 7.03, 1.05 35.61, 1.23 42.81 M0.81 -1.29 C0.71 5.57, 0.03 33.92, 0.31 41" stroke="#000000" stroke-width="1" fill="none"></path></g></g><g transform="translate(1268.3912333381077 391.4372067070846) rotate(0 3.5 12.5)"><text x="0" y="17" font-family="Virgil, Segoe UI Emoji" font-size="20px" fill="#000000" text-anchor="start" style="white-space: pre;" direction="ltr">1</text></g><g transform="translate(1304.756438244108 499.3594022384273) rotate(0 7.5 12.5)"><text x="0" y="17" font-family="Virgil, Segoe UI Emoji" font-size="20px" fill="#000000" text-anchor="start" style="white-space: pre;" direction="ltr">N</text></g><g stroke-linecap="round" transform="translate(286.53310300275666 566.5128378604625) rotate(0 65.10528203715859 17.5)"><path d="M71.69 -0.7 C81.76 -0.79, 93.76 1.36, 102.47 3.31 C111.18 5.25, 119.32 8.38, 123.94 10.98 C128.57 13.57, 131.19 16.1, 130.25 18.89 C129.31 21.67, 124.76 25.09, 118.3 27.66 C111.85 30.24, 101.53 33.17, 91.51 34.33 C81.5 35.48, 68.95 35.15, 58.22 34.59 C47.49 34.02, 35.79 32.62, 27.12 30.92 C18.46 29.23, 10.76 26.87, 6.21 24.4 C1.66 21.93, -1.21 19.11, -0.18 16.1 C0.85 13.08, 5.79 8.73, 12.4 6.31 C19.01 3.89, 28.73 2.64, 39.48 1.59 C50.22 0.55, 69.99 0.11, 76.88 0.03 C83.77 -0.05, 80.93 0.62, 80.82 1.12 M79.19 0.42 C89.28 0.68, 102.22 1.95, 110.3 4.07 C118.37 6.2, 124.4 10.27, 127.62 13.16 C130.84 16.04, 132.12 18.69, 129.61 21.39 C127.1 24.09, 120.46 27.07, 112.55 29.37 C104.65 31.68, 92.78 34.44, 82.19 35.23 C71.61 36.03, 59.43 35.08, 49.06 34.15 C38.68 33.22, 27.45 31.4, 19.96 29.65 C12.47 27.9, 7.19 26.57, 4.11 23.63 C1.03 20.68, -1.01 15.24, 1.5 11.97 C4.02 8.69, 11.65 6.02, 19.2 3.98 C26.76 1.94, 36.49 0.32, 46.81 -0.28 C57.13 -0.88, 75.62 0.34, 81.13 0.37 C86.64 0.39, 80.16 -0.48, 79.89 -0.12" stroke="#000000" stroke-width="1" fill="none"></path></g><g transform="translate(332.1383850399153 571.5128378604625) rotate(0 19.5 12.5)"><text x="19.5" y="17" font-family="Virgil, Segoe UI Emoji" font-size="20px" fill="#000000" text-anchor="middle" style="white-space: pre;" direction="ltr">tipo</text></g><g stroke-linecap="round" transform="translate(209.78718479543306 638.1660363784806) rotate(0 91 30)"><path d="M93.21 0.18 C105.65 -0.45, 120.63 0.54, 132.46 2.4 C144.3 4.27, 156.3 7.78, 164.22 11.36 C172.14 14.94, 177.54 19.38, 179.97 23.88 C182.4 28.38, 181.9 34.18, 178.81 38.39 C175.72 42.59, 170.01 45.79, 161.44 49.1 C152.87 52.41, 139.69 56.39, 127.4 58.22 C115.1 60.05, 100.78 60.26, 87.68 60.1 C74.57 59.93, 60.31 59.23, 48.75 57.21 C37.19 55.19, 26.27 51.47, 18.33 48 C10.4 44.52, 3.7 40.52, 1.16 36.37 C-1.38 32.22, -0.35 27.32, 3.07 23.09 C6.49 18.86, 13.24 14.49, 21.68 10.99 C30.12 7.49, 40.9 3.76, 53.73 2.09 C66.55 0.42, 90.08 1.12, 98.62 0.98 C107.16 0.84, 105.13 0.86, 104.96 1.24 M68.61 0.94 C80.03 -0.6, 95.97 -1.22, 109.15 -0.31 C122.33 0.59, 137.27 3.32, 147.71 6.36 C158.14 9.4, 166.21 13.98, 171.78 17.92 C177.34 21.86, 180.86 25.94, 181.1 29.98 C181.33 34.01, 178.5 38.05, 173.19 42.14 C167.87 46.23, 159.21 51.84, 149.23 54.5 C139.25 57.17, 126.35 57.48, 113.29 58.13 C100.23 58.79, 83.75 59.23, 70.87 58.45 C57.99 57.66, 46.45 55.73, 36 53.41 C25.55 51.08, 14.11 48.49, 8.2 44.5 C2.29 40.52, 0.54 34.26, 0.55 29.51 C0.56 24.76, 2.55 19.61, 8.25 16.02 C13.95 12.42, 24.36 10.46, 34.75 7.94 C45.14 5.42, 64.9 1.8, 70.61 0.92 C76.31 0.04, 68.77 2.09, 68.96 2.67" stroke="#000000" stroke-width="1" fill="none"></path></g><g transform="translate(219.78718479543306 655.6660363784806) rotate(0 81 12.5)"><text x="81" y="17" font-family="Virgil, Segoe UI Emoji" font-size="20px" fill="#000000" text-anchor="middle" style="white-space: pre;" direction="ltr">tipo_formulacao</text></g><g stroke-linecap="round"><g transform="translate(431.993568214628 631.0315973551384) rotate(0 -19.107858763690274 -14.77481832782297)"><path d="M-1.03 -0.49 C-7.43 -5.19, -31.84 -24.4, -38.17 -29.05 M0.62 -1.8 C-5.89 -6.3, -32.08 -23.75, -38.84 -27.99" stroke="#000000" stroke-width="1" fill="none"></path></g></g><g stroke-linecap="round"><g transform="translate(439.03195686179686 654.4929716039525) rotate(0 -26.62315170177274 9.36500198900427)"><path d="M0.07 0.42 C-8.76 3.32, -43.36 14.54, -52.11 17.6 M-1.36 -0.41 C-10.47 2.68, -45.22 16.23, -53.31 19.14" stroke="#000000" stroke-width="1" fill="none"></path></g></g><g stroke-linecap="round"><g transform="translate(1866.9760981823263 742.2716965764603) rotate(0 -274.25333542787354 2.2352617118671105)"><path d="M-1 1.03 C-92.56 1.54, -456.94 2.26, -548.43 2.46 M0.67 0.52 C-91.1 1.28, -457.8 3.47, -549.17 3.95" stroke="#000000" stroke-width="1" fill="none"></path></g></g><g stroke-linecap="round" transform="translate(1211.4186705585732 715.4889843555763) rotate(0 55.7207539961521 29.91323050871887)"><path d="M57.69 -1.98 C68.8 6.29, 84.44 13.53, 110.51 28.59 M56.28 -0.64 C67.46 6.51, 79.3 11.61, 111.63 29.67 M113.38 29.24 C90.19 39.67, 70.34 52.99, 55.13 61.71 M112.07 30.46 C94.87 37.61, 80.12 46.22, 55.2 59.92 M55.96 59.92 C43.31 53.79, 30.81 46.85, 0.55 30.3 M55.2 59.94 C40.63 50.44, 24.53 42.21, 0.94 30.08 M-1.07 31.17 C15.66 21.69, 34.17 14.18, 57.88 -0.62 M-0.23 29.84 C11.05 23.08, 22.55 17.2, 55.71 -0.05" stroke="#000000" stroke-width="1" fill="none"></path></g><g transform="translate(1237.1394245547253 732.902214864295) rotate(0 30 12.5)"><text x="30" y="17" font-family="Virgil, Segoe UI Emoji" font-size="20px" fill="#000000" text-anchor="middle" style="white-space: pre;" direction="ltr">possui</text></g><g stroke-linecap="round"><g transform="translate(1265.3798470824959 714.3158802019225) rotate(0 -1.5729028741331774 -69.99049532985006)"><path d="M-0.15 0.44 C-0.24 -22.81, -1.38 -115.54, -1.72 -138.74 M-1.69 -0.38 C-1.88 -24.03, -3.26 -117.04, -2.95 -140.42" stroke="#000000" stroke-width="1" fill="none"></path></g></g><g transform="translate(1270.072145559734 575.6052964380426) rotate(0 7.5 12.5)"><text x="0" y="17" font-family="Virgil, Segoe UI Emoji" font-size="20px" fill="#000000" text-anchor="start" style="white-space: pre;" direction="ltr">N</text></g><g transform="translate(1857.8721462455378 754.2928594926184) rotate(0 3.5 12.5)"><text x="0" y="17" font-family="Virgil, Segoe UI Emoji" font-size="20px" fill="#000000" text-anchor="start" style="white-space: pre;" direction="ltr">1</text></g><g stroke-linecap="round" transform="translate(1016.6893273000171 455.06781682781644) rotate(0 59.826500396563404 24.634439023342225)"><path d="M61.82 -0.76 C81.77 8.33, 104.41 17.73, 119.3 26.61 M59.2 0.89 C74.15 5.08, 87.33 11.33, 120.16 24.44 M119.36 23.33 C105.05 30.29, 90.09 37.14, 61.65 48.45 M120.26 25.37 C104.2 30.39, 89.91 37.4, 60.3 48.82 M59.6 49.96 C45.37 42.37, 30.6 36.04, 1.92 25.37 M60.55 49.4 C44.5 43.11, 29.08 37.9, 0.4 25.08 M-1.25 25.24 C21.06 16.3, 43.72 6.84, 61.06 -1.53 M-0.89 25.59 C11.76 20.25, 23.75 15.05, 59.52 -0.05" stroke="#000000" stroke-width="1" fill="none"></path></g><g transform="translate(1033.0158276965806 467.20225585115867) rotate(0 43.5 12.5)"><text x="43.5" y="17" font-family="Virgil, Segoe UI Emoji" font-size="20px" fill="#000000" text-anchor="middle" style="white-space: pre;" direction="ltr"> colhido</text></g><g stroke-linecap="round"><g transform="translate(1214.9378648821576 547.7402096694191) rotate(0 -55.42807726220269 -25.337018722887393)"><path d="M-0.63 -0.39 C-19.27 -8.4, -92.64 -40.27, -110.84 -48.55 M1.24 -1.63 C-17.7 -9.94, -93.49 -42.38, -112.09 -50.29" stroke="#000000" stroke-width="1" fill="none"></path></g></g><g stroke-linecap="round"><g transform="translate(870.0557973136175 392.8951868821968) rotate(0 88.034107289641 36.70413838412276)"><path d="M-0.29 -0.51 C28.76 11.78, 144.67 61.53, 174.04 74.17 M1.76 -1.82 C31.22 10.56, 147.35 62.14, 176.36 75.23" stroke="#000000" stroke-width="1" fill="none"></path></g></g><g stroke-linecap="round"><g transform="translate(1224.3223830783827 385.856798235028) rotate(0 -55.59478795927251 39.7280531906666)"><path d="M-0.59 -1.07 C-19.05 12.28, -93.23 65.87, -111.91 79.25 M1.29 0.99 C-17.15 14.57, -93.36 67.31, -112.48 80.52" stroke="#000000" stroke-width="1" fill="none"></path></g></g><g transform="translate(859.4981749637386 397.2989781602577) rotate(0 3.5 12.5)"><text x="0" y="17" font-family="Virgil, Segoe UI Emoji" font-size="20px" fill="#000000" text-anchor="start" style="white-space: pre;" direction="ltr">1</text></g><g transform="translate(1190.303465237941 545.1055729211853) rotate(0 7.5 12.5)"><text x="0" y="17" font-family="Virgil, Segoe UI Emoji" font-size="20px" fill="#000000" text-anchor="start" style="white-space: pre;" direction="ltr">N</text></g><g transform="translate(1199.6880621924174 373.8376039114436) rotate(0 3.5 12.5)"><text x="0" y="17" font-family="Virgil, Segoe UI Emoji" font-size="20px" fill="#000000" text-anchor="start" style="white-space: pre;" direction="ltr">1</text></g><g stroke-linecap="round" transform="translate(879.4402367515913 489.08685280563503) rotate(0 74.5 30)"><path d="M74.48 0.64 C85.11 0.14, 97.7 0.78, 107.89 2.93 C118.08 5.08, 128.84 9.51, 135.63 13.54 C142.43 17.58, 147.13 22.76, 148.67 27.15 C150.21 31.54, 148.82 35.78, 144.89 39.89 C140.96 44, 133.9 48.58, 125.08 51.8 C116.27 55.02, 103.41 58, 92.02 59.21 C80.63 60.43, 67.71 60.12, 56.74 59.09 C45.76 58.06, 34.86 56.05, 26.17 53.05 C17.48 50.05, 8.74 45.45, 4.6 41.08 C0.46 36.71, -0.06 31.55, 1.32 26.83 C2.7 22.11, 6.41 16.73, 12.87 12.74 C19.33 8.76, 29.21 5.02, 40.1 2.94 C51 0.86, 71.16 0.65, 78.23 0.27 C85.3 -0.1, 82.6 0.33, 82.54 0.68 M89.1 0.42 C100.04 0.68, 112.62 3.05, 121.76 5.86 C130.9 8.67, 139.39 12.76, 143.95 17.29 C148.51 21.83, 150.45 28.14, 149.11 33.1 C147.77 38.05, 142.25 43.05, 135.91 47.03 C129.56 51, 120.99 55.03, 111.03 56.95 C101.06 58.87, 87.8 58.57, 76.13 58.52 C64.46 58.48, 51.14 58.63, 41.01 56.67 C30.88 54.72, 22.11 50.48, 15.33 46.78 C8.55 43.08, 2.07 39.08, 0.33 34.48 C-1.42 29.88, 1.04 23.71, 4.88 19.17 C8.72 14.64, 15.29 10.23, 23.36 7.28 C31.42 4.32, 42.19 2.34, 53.26 1.45 C64.33 0.57, 83.91 1.77, 89.8 1.95 C95.68 2.13, 88.67 2.38, 88.59 2.53" stroke="#000000" stroke-width="1" fill="none"></path></g><g transform="translate(898.9402367515913 506.58685280563503) rotate(0 55 12.5)"><text x="55" y="17" font-family="Virgil, Segoe UI Emoji" font-size="20px" fill="#000000" text-anchor="middle" style="white-space: pre;" direction="ltr">quantidade</text></g><g stroke-linecap="round" transform="translate(1024.65591090046 538.26890229235) rotate(0 54 19)"><path d="M38.27 0.72 C46.73 -0.44, 58.67 -0.63, 68.22 0.44 C77.78 1.51, 89.15 4.44, 95.58 7.13 C102.01 9.82, 105.61 13.36, 106.79 16.58 C107.98 19.8, 106.59 23.45, 102.69 26.46 C98.8 29.46, 91.59 32.78, 83.44 34.61 C75.29 36.45, 63.57 37.55, 53.79 37.48 C44.01 37.4, 32.99 36.06, 24.75 34.16 C16.52 32.27, 8.42 29.12, 4.37 26.1 C0.32 23.08, -0.86 19.3, 0.44 16.04 C1.74 12.78, 4.95 9.25, 12.18 6.55 C19.41 3.86, 37.77 0.98, 43.8 -0.12 C49.82 -1.22, 48.23 -0.44, 48.34 -0.05 M39.8 0.19 C48.75 -0.75, 61.61 -0.17, 70.85 1.03 C80.1 2.23, 88.92 4.84, 95.27 7.36 C101.62 9.88, 107.96 12.7, 108.96 16.15 C109.95 19.6, 105.73 24.76, 101.26 28.04 C96.79 31.33, 90.07 34.33, 82.14 35.86 C74.21 37.39, 63.21 37.38, 53.67 37.21 C44.13 37.03, 33.02 36.46, 24.91 34.81 C16.79 33.16, 8.78 30.7, 4.96 27.31 C1.14 23.92, 0.44 18.21, 1.99 14.49 C3.54 10.77, 7.8 7.45, 14.23 4.98 C20.67 2.52, 36.5 0.6, 40.58 -0.29 C44.67 -1.18, 38.64 -0.84, 38.75 -0.38" stroke="#000000" stroke-width="1" fill="none"></path></g><g transform="translate(1053.15591090046 544.76890229235) rotate(0 25.5 12.5)"><text x="25.5" y="17" font-family="Virgil, Segoe UI Emoji" font-size="20px" fill="#000000" text-anchor="middle" style="white-space: pre;" direction="ltr">data</text></g><g stroke-linecap="round"><g transform="translate(1034.6426560593218 483.760428318405) rotate(0 -13.475945945535777 6.723776040792529)"><path d="M-1.12 -1.19 C-5.51 0.87, -22.36 10.74, -26.66 13.04 M0.49 0.79 C-4.01 3.02, -22.74 12.48, -27.44 14.64" stroke="#000000" stroke-width="1" fill="none"></path></g></g><g stroke-linecap="round"><g transform="translate(1063.9693935599023 538.8946696168557) rotate(0 -0.37186148420721565 -19.663259151027688)"><path d="M-0.92 0.54 C-0.79 -6.14, -0.72 -33.12, -0.39 -39.86 M0.8 -0.23 C0.84 -6.82, -1.55 -32.43, -1.54 -38.93" stroke="#000000" stroke-width="1" fill="none"></path></g></g><g stroke-linecap="round" transform="translate(1288.8417396733416 883.0921322974184) rotate(0 55.221452497410525 17.509228905355087)"><path d="M35.4 1.63 C43.97 0.28, 56.13 -0.28, 65.84 0.2 C75.55 0.69, 86.39 2.27, 93.65 4.54 C100.91 6.81, 106.96 10.8, 109.4 13.81 C111.84 16.82, 111.62 19.73, 108.28 22.59 C104.94 25.45, 97.22 28.91, 89.35 30.97 C81.48 33.02, 71.1 34.68, 61.05 34.92 C51.01 35.16, 38.06 33.72, 29.07 32.4 C20.07 31.08, 12.03 29.55, 7.08 27 C2.14 24.45, -1.15 20.52, -0.6 17.09 C-0.05 13.67, 3.34 9.31, 10.38 6.45 C17.41 3.59, 35.44 0.79, 41.59 -0.07 C47.75 -0.93, 47.09 0.96, 47.3 1.27 M29.67 0.62 C37.83 -0.74, 50.72 0.49, 60.42 1.11 C70.13 1.73, 80.29 2.5, 87.91 4.34 C95.53 6.18, 102.45 9.27, 106.14 12.15 C109.84 15.03, 112.2 18.4, 110.06 21.6 C107.92 24.8, 100.76 28.92, 93.32 31.34 C85.87 33.77, 75.27 35.83, 65.41 36.15 C55.54 36.47, 43.23 34.55, 34.11 33.27 C24.99 31.99, 16.42 31.1, 10.68 28.46 C4.94 25.82, 0.21 20.72, -0.33 17.43 C-0.87 14.15, 2.2 11.41, 7.43 8.74 C12.66 6.06, 27.12 2.23, 31.05 1.38 C34.97 0.53, 30.93 3.45, 31.01 3.64" stroke="#000000" stroke-width="1" fill="none"></path></g><g transform="translate(1324.563192170752 888.1013612027734) rotate(0 19.5 12.5)"><text x="19.5" y="17" font-family="Virgil, Segoe UI Emoji" font-size="20px" fill="#000000" text-anchor="middle" style="white-space: pre;" direction="ltr">tipo</text></g><g stroke-linecap="round"><g transform="translate(1348.3546189791632 889.8575477765667) rotate(0 1.5393940357410258 -14.645370554675026)"><path d="M-0.93 0.54 C-0.68 -4.25, 1.03 -23.11, 1.78 -27.9 M0.78 -0.23 C1.38 -5.46, 3.6 -25.38, 4.01 -29.83" stroke="#000000" stroke-width="1" fill="none"></path></g></g><g stroke-linecap="round" transform="translate(437.6821687646111 220.74735723221886) rotate(0 101.5 26.5)"><path d="M103.23 -1.65 C133.75 10.45, 166.83 18.82, 204.64 28.66 M101.59 0.56 C123.5 5.21, 142.29 11.27, 203.83 26.97 M203.17 25.51 C177.66 34.61, 151.49 41.65, 103.96 53.43 M202.66 26.52 C170.89 34.38, 139.13 42.46, 101.42 53.12 M103.96 51.85 C66.14 43.9, 29.04 36.66, 0.56 26.07 M101.67 53.87 C71.11 44.81, 40.89 36.9, -0.09 26.34 M0.77 25.89 C39.08 18.66, 77.23 7.25, 101.93 -0.54 M-0.98 27.43 C35.09 16.6, 70.68 8.14, 101.79 0.52" stroke="#000000" stroke-width="1" fill="none"></path></g><g transform="translate(469.1821687646111 234.74735723221886) rotate(0 70 12.5)"><text x="70" y="17" font-family="Virgil, Segoe UI Emoji" font-size="20px" fill="#000000" text-anchor="middle" style="white-space: pre;" direction="ltr">so produzias</text></g><g stroke-linecap="round"><g transform="translate(537.8381503145537 190.4353592538423) rotate(0 1.1658584171792086 14.9973172327851)"><path d="M-0.64 0.94 C-0.61 5.75, 0.46 24.94, 0.89 29.61 M1.22 0.39 C1.53 4.77, 3 22.78, 2.97 27.75" stroke="#000000" stroke-width="1" fill="none"></path></g></g><g transform="translate(512.902261014899 188.1693838964934) rotate(0 7.5 12.5)"><text x="0" y="17" font-family="Virgil, Segoe UI Emoji" font-size="20px" fill="#000000" text-anchor="start" style="white-space: pre;" direction="ltr">N</text></g><g stroke-linecap="round"><g transform="translate(636.5430260321117 251.73629638644337) rotate(0 46.86979686129774 0.3544774740135246)"><path d="M-0.59 -1.12 C15.21 -1.18, 78.42 0.16, 94.33 0.18 M1.3 0.91 C16.96 1.02, 77.78 1.99, 93.26 1.8" stroke="#000000" stroke-width="1" fill="none"></path></g></g><g stroke-linecap="round"><g transform="translate(729.0139294247562 254.8532825489002) rotate(0 0.3894400252327159 37.90143381156263)"><path d="M0.3 0.88 C0.44 13.12, 1.33 61.74, 1.79 73.9 M-1 0.3 C-1.13 12.71, 0.06 63.02, 0.7 75.5" stroke="#000000" stroke-width="1" fill="none"></path></g></g><g transform="translate(714.4679939999575 307.6541848030096) rotate(0 3.5 12.5)"><text x="0" y="17" font-family="Virgil, Segoe UI Emoji" font-size="20px" fill="#000000" text-anchor="start" style="white-space: pre;" direction="ltr">1</text></g><g stroke-linecap="round" transform="translate(294.42911619057054 235.06752059922513) rotate(0 62 17.5)"><path d="M79.26 1.57 C89.86 2.06, 102.14 4.06, 109.63 6.26 C117.12 8.45, 122.65 11.5, 124.19 14.72 C125.72 17.94, 123.64 22.76, 118.83 25.57 C114.03 28.37, 104.79 30.1, 95.36 31.54 C85.93 32.98, 73.54 34.07, 62.27 34.2 C51 34.34, 37.19 34.05, 27.75 32.36 C18.31 30.66, 10.04 26.78, 5.62 24.02 C1.21 21.27, -0.24 18.84, 1.26 15.83 C2.76 12.82, 7.32 8.46, 14.62 5.97 C21.92 3.47, 33.51 1.8, 45.06 0.86 C56.62 -0.07, 76.87 0.03, 83.95 0.35 C91.03 0.66, 87.97 2.29, 87.55 2.76 M52.26 -0.13 C62.37 -0.85, 75.54 -0.91, 86.03 0.26 C96.52 1.43, 109.05 4.15, 115.2 6.88 C121.36 9.62, 122.95 13.38, 122.95 16.68 C122.95 19.98, 121 23.81, 115.23 26.69 C109.45 29.58, 98.45 32.51, 88.31 33.98 C78.16 35.46, 65.69 36.06, 54.36 35.56 C43.04 35.06, 29.08 33.32, 20.37 30.98 C11.66 28.63, 5.08 24.72, 2.12 21.5 C-0.85 18.28, -0.65 14.5, 2.57 11.63 C5.79 8.76, 13.26 5.93, 21.44 4.27 C29.63 2.61, 46.51 2.45, 51.69 1.67 C56.87 0.9, 51.97 -0.57, 52.5 -0.38" stroke="#000000" stroke-width="1" fill="none"></path></g><g transform="translate(318.42911619057054 240.06752059922513) rotate(0 38 12.5)"><text x="38" y="17" font-family="Virgil, Segoe UI Emoji" font-size="20px" fill="#000000" text-anchor="middle" style="white-space: pre;" direction="ltr">medicao</text></g><g stroke-linecap="round" transform="translate(344.9243827064498 280.05613597637466) rotate(0 62 17.5)"><path d="M57.62 0.86 C68.04 0.57, 81.33 1.08, 91.26 2.44 C101.19 3.79, 111.68 6.36, 117.19 8.98 C122.71 11.6, 125.3 15.02, 124.36 18.15 C123.42 21.28, 118.3 25.11, 111.56 27.78 C104.81 30.44, 94.28 33.07, 83.89 34.15 C73.5 35.23, 60.02 35.01, 49.22 34.27 C38.41 33.53, 27.14 31.76, 19.05 29.74 C10.96 27.72, 3.23 25.13, 0.69 22.16 C-1.84 19.2, -0.14 15.19, 3.86 11.98 C7.85 8.77, 13.72 4.84, 24.66 2.89 C35.59 0.94, 60.2 0.7, 69.44 0.27 C78.69 -0.15, 80.12 0.14, 80.12 0.34 M49.33 0.52 C59.62 -0.3, 75.64 1.2, 86.43 2.56 C97.21 3.91, 107.62 6.41, 114.05 8.65 C120.47 10.9, 124.79 13.14, 124.99 16.02 C125.19 18.89, 121.06 23.22, 115.24 25.91 C109.41 28.59, 99.89 30.86, 90.02 32.11 C80.15 33.37, 67.07 33.64, 56.01 33.45 C44.95 33.26, 32.53 32.93, 23.66 30.97 C14.79 29.02, 6.52 24.74, 2.78 21.7 C-0.97 18.66, -1.46 15.52, 1.19 12.75 C3.84 9.99, 10.25 7.05, 18.7 5.11 C27.14 3.16, 46.44 2.03, 51.86 1.1 C57.28 0.17, 51.52 -0.53, 51.23 -0.49" stroke="#000000" stroke-width="1" fill="none"></path></g><g transform="translate(351.4243827064498 285.05613597637466) rotate(0 55.5 12.5)"><text x="55.5" y="17" font-family="Virgil, Segoe UI Emoji" font-size="20px" fill="#000000" text-anchor="middle" style="white-space: pre;" direction="ltr">data_hora</text></g><g stroke-linecap="round"><g transform="translate(455.75727055374864 250.69730099895776) rotate(0 -21.15849300472368 0.5486940880693432)"><path d="M0.05 -1.17 C-6.83 -0.9, -34.46 0.67, -41.47 0.84 M-1.38 0.83 C-8.39 1.35, -35.43 2.31, -42.37 2.27" stroke="#000000" stroke-width="1" fill="none"></path></g></g><g stroke-linecap="round"><g transform="translate(495.23923479216853 264.2042759147624) rotate(0 -18.05026967911016 15.124413354275454)"><path d="M0.24 1.15 C-5.64 6.16, -29.48 25.09, -35.73 29.55 M-1.09 0.7 C-7.03 5.39, -30.71 23.02, -36.34 27.66" stroke="#000000" stroke-width="1" fill="none"></path></g></g></svg>