<?xml version="1.0" encoding="UTF-8" standalone="no"?><svg xmlns="http://www.w3.org/2000/svg" xmlns:xlink="http://www.w3.org/1999/xlink" contentStyleType="text/css" height="701px" preserveAspectRatio="none" style="width:681px;height:701px;background:#FFFFFF;" version="1.1" viewBox="0 0 681 701" width="681px" zoomAndPan="magnify"><defs/><g><!--MD5=[be996cdb8e6bf2fc7cb89c555f2cd144]
class Entity--><g id="elem_Entity"><rect codeLine="4" fill="#F1F1F1" height="276.1563" id="Entity" rx="2.5" ry="2.5" style="stroke:#181818;stroke-width:0.5;" width="208" x="166.5" y="418"/><ellipse cx="247.25" cy="434" fill="#ADD1B2" rx="11" ry="11" style="stroke:#181818;stroke-width:1.0;"/><path d="M250.2188,439.6406 Q249.6406,439.9375 249,440.0781 Q248.3594,440.2344 247.6563,440.2344 Q245.1563,440.2344 243.8281,438.5938 Q242.5156,436.9375 242.5156,433.8125 Q242.5156,430.6875 243.8281,429.0313 Q245.1563,427.375 247.6563,427.375 Q248.3594,427.375 249,427.5313 Q249.6563,427.6875 250.2188,427.9844 L250.2188,430.7031 Q249.5938,430.125 249,429.8594 Q248.4063,429.5781 247.7813,429.5781 Q246.4375,429.5781 245.75,430.6563 Q245.0625,431.7188 245.0625,433.8125 Q245.0625,435.9063 245.75,436.9844 Q246.4375,438.0469 247.7813,438.0469 Q248.4063,438.0469 249,437.7813 Q249.5938,437.5 250.2188,436.9219 L250.2188,439.6406 Z " fill="#000000"/><text fill="#000000" font-family="sans-serif" font-size="14" lengthAdjust="spacing" textLength="38" x="267.75" y="438.8467">Entity</text><line style="stroke:#181818;stroke-width:0.5;" x1="167.5" x2="373.5" y1="450" y2="450"/><text fill="#000000" font-family="sans-serif" font-size="14" lengthAdjust="spacing" textLength="66" x="172.5" y="466.9951">-id: String</text><text fill="#000000" font-family="sans-serif" font-size="14" lengthAdjust="spacing" textLength="113" x="172.5" y="483.292">-latitude: double</text><text fill="#000000" font-family="sans-serif" font-size="14" lengthAdjust="spacing" textLength="127" x="172.5" y="499.5889">-longitude: double</text><text fill="#000000" font-family="sans-serif" font-size="14" lengthAdjust="spacing" textLength="142" x="172.5" y="515.8857">-localizationId: String</text><line style="stroke:#181818;stroke-width:0.5;" x1="167.5" x2="373.5" y1="523.1875" y2="523.1875"/><text fill="#000000" font-family="sans-serif" font-size="14" lengthAdjust="spacing" textLength="116" x="172.5" y="540.1826">-validateId(): void</text><text fill="#000000" font-family="sans-serif" font-size="14" lengthAdjust="spacing" textLength="159" x="172.5" y="556.4795">-validateLatitude(): void</text><text fill="#000000" font-family="sans-serif" font-size="14" lengthAdjust="spacing" textLength="173" x="172.5" y="572.7764">-validateLongitude(): void</text><text fill="#000000" font-family="sans-serif" font-size="14" lengthAdjust="spacing" textLength="196" x="172.5" y="589.0732">-validateLocalizationId(): void</text><text fill="#000000" font-family="sans-serif" font-size="14" lengthAdjust="spacing" textLength="4" x="172.5" y="605.3701"> </text><text fill="#000000" font-family="sans-serif" font-size="14" lengthAdjust="spacing" textLength="106" x="172.5" y="621.667">+getId(): String</text><text fill="#000000" font-family="sans-serif" font-size="14" lengthAdjust="spacing" textLength="157" x="172.5" y="637.9639">+getLatitude(): double</text><text fill="#000000" font-family="sans-serif" font-size="14" lengthAdjust="spacing" textLength="171" x="172.5" y="654.2607">+getLongitude(): double</text><text fill="#000000" font-family="sans-serif" font-size="14" lengthAdjust="spacing" textLength="186" x="172.5" y="670.5576">+getLocalizationId(): String</text><text fill="#000000" font-family="sans-serif" font-size="14" lengthAdjust="spacing" textLength="125" x="172.5" y="686.8545">+toString(): String</text></g><!--MD5=[ed6624c6556d5e7b1bd23032162d20b7]
class Client--><g id="elem_Client"><rect codeLine="22" fill="#F1F1F1" height="48" id="Client" rx="2.5" ry="2.5" style="stroke:#181818;stroke-width:0.5;" width="71" x="7" y="277.5"/><ellipse cx="22" cy="293.5" fill="#ADD1B2" rx="11" ry="11" style="stroke:#181818;stroke-width:1.0;"/><path d="M24.9688,299.1406 Q24.3906,299.4375 23.75,299.5781 Q23.1094,299.7344 22.4063,299.7344 Q19.9063,299.7344 18.5781,298.0938 Q17.2656,296.4375 17.2656,293.3125 Q17.2656,290.1875 18.5781,288.5313 Q19.9063,286.875 22.4063,286.875 Q23.1094,286.875 23.75,287.0313 Q24.4063,287.1875 24.9688,287.4844 L24.9688,290.2031 Q24.3438,289.625 23.75,289.3594 Q23.1563,289.0781 22.5313,289.0781 Q21.1875,289.0781 20.5,290.1563 Q19.8125,291.2188 19.8125,293.3125 Q19.8125,295.4063 20.5,296.4844 Q21.1875,297.5469 22.5313,297.5469 Q23.1563,297.5469 23.75,297.2813 Q24.3438,297 24.9688,296.4219 L24.9688,299.1406 Z " fill="#000000"/><text fill="#000000" font-family="sans-serif" font-size="14" lengthAdjust="spacing" textLength="39" x="36" y="298.3467">Client</text><line style="stroke:#181818;stroke-width:0.5;" x1="8" x2="77" y1="309.5" y2="309.5"/><line style="stroke:#181818;stroke-width:0.5;" x1="8" x2="77" y1="317.5" y2="317.5"/></g><!--MD5=[428f3d998c8a9a358b7cb233b781ad06]
class Enterprise--><g id="elem_Enterprise"><rect codeLine="24" fill="#F1F1F1" height="113.1875" id="Enterprise" rx="2.5" ry="2.5" style="stroke:#181818;stroke-width:0.5;" width="155" x="113" y="245"/><ellipse cx="151.4" cy="261" fill="#ADD1B2" rx="11" ry="11" style="stroke:#181818;stroke-width:1.0;"/><path d="M154.3688,266.6406 Q153.7906,266.9375 153.15,267.0781 Q152.5094,267.2344 151.8063,267.2344 Q149.3063,267.2344 147.9781,265.5938 Q146.6656,263.9375 146.6656,260.8125 Q146.6656,257.6875 147.9781,256.0313 Q149.3063,254.375 151.8063,254.375 Q152.5094,254.375 153.15,254.5313 Q153.8063,254.6875 154.3688,254.9844 L154.3688,257.7031 Q153.7438,257.125 153.15,256.8594 Q152.5563,256.5781 151.9313,256.5781 Q150.5875,256.5781 149.9,257.6563 Q149.2125,258.7188 149.2125,260.8125 Q149.2125,262.9063 149.9,263.9844 Q150.5875,265.0469 151.9313,265.0469 Q152.5563,265.0469 153.15,264.7813 Q153.7438,264.5 154.3688,263.9219 L154.3688,266.6406 Z " fill="#000000"/><text fill="#000000" font-family="sans-serif" font-size="14" lengthAdjust="spacing" textLength="71" x="170.6" y="265.8467">Enterprise</text><line style="stroke:#181818;stroke-width:0.5;" x1="114" x2="267" y1="277" y2="277"/><text fill="#000000" font-family="sans-serif" font-size="14" lengthAdjust="spacing" textLength="109" x="119" y="293.9951">-isHub: boolean</text><line style="stroke:#181818;stroke-width:0.5;" x1="114" x2="267" y1="301.2969" y2="301.2969"/><text fill="#000000" font-family="sans-serif" font-size="14" lengthAdjust="spacing" textLength="125" x="119" y="318.292">+makeHub(): void</text><text fill="#000000" font-family="sans-serif" font-size="14" lengthAdjust="spacing" textLength="143" x="119" y="334.5889">+unmakeHub(): void</text><text fill="#000000" font-family="sans-serif" font-size="14" lengthAdjust="spacing" textLength="126" x="119" y="350.8857">+isHub(): boolean</text></g><!--MD5=[09e3160644ea82bed9dc2bfdc7bfe5c8]
class Producer--><g id="elem_Producer"><rect codeLine="32" fill="#F1F1F1" height="48" id="Producer" rx="2.5" ry="2.5" style="stroke:#181818;stroke-width:0.5;" width="95" x="303" y="277.5"/><ellipse cx="318" cy="293.5" fill="#ADD1B2" rx="11" ry="11" style="stroke:#181818;stroke-width:1.0;"/><path d="M320.9688,299.1406 Q320.3906,299.4375 319.75,299.5781 Q319.1094,299.7344 318.4063,299.7344 Q315.9063,299.7344 314.5781,298.0938 Q313.2656,296.4375 313.2656,293.3125 Q313.2656,290.1875 314.5781,288.5313 Q315.9063,286.875 318.4063,286.875 Q319.1094,286.875 319.75,287.0313 Q320.4063,287.1875 320.9688,287.4844 L320.9688,290.2031 Q320.3438,289.625 319.75,289.3594 Q319.1563,289.0781 318.5313,289.0781 Q317.1875,289.0781 316.5,290.1563 Q315.8125,291.2188 315.8125,293.3125 Q315.8125,295.4063 316.5,296.4844 Q317.1875,297.5469 318.5313,297.5469 Q319.1563,297.5469 319.75,297.2813 Q320.3438,297 320.9688,296.4219 L320.9688,299.1406 Z " fill="#000000"/><text fill="#000000" font-family="sans-serif" font-size="14" lengthAdjust="spacing" textLength="63" x="332" y="298.3467">Producer</text><line style="stroke:#181818;stroke-width:0.5;" x1="304" x2="397" y1="309.5" y2="309.5"/><line style="stroke:#181818;stroke-width:0.5;" x1="304" x2="397" y1="317.5" y2="317.5"/></g><!--MD5=[02e4b9b7573f1156f41e60aa5b4e25a4]
class Company--><g id="elem_Company"><rect codeLine="38" fill="#F1F1F1" height="178.375" id="Company" rx="2.5" ry="2.5" style="stroke:#181818;stroke-width:0.5;" width="376" x="298.5" y="7"/><ellipse cx="449.75" cy="23" fill="#ADD1B2" rx="11" ry="11" style="stroke:#181818;stroke-width:1.0;"/><path d="M452.7188,28.6406 Q452.1406,28.9375 451.5,29.0781 Q450.8594,29.2344 450.1563,29.2344 Q447.6563,29.2344 446.3281,27.5938 Q445.0156,25.9375 445.0156,22.8125 Q445.0156,19.6875 446.3281,18.0313 Q447.6563,16.375 450.1563,16.375 Q450.8594,16.375 451.5,16.5313 Q452.1563,16.6875 452.7188,16.9844 L452.7188,19.7031 Q452.0938,19.125 451.5,18.8594 Q450.9063,18.5781 450.2813,18.5781 Q448.9375,18.5781 448.25,19.6563 Q447.5625,20.7188 447.5625,22.8125 Q447.5625,24.9063 448.25,25.9844 Q448.9375,27.0469 450.2813,27.0469 Q450.9063,27.0469 451.5,26.7813 Q452.0938,26.5 452.7188,25.9219 L452.7188,28.6406 Z " fill="#000000"/><text fill="#000000" font-family="sans-serif" font-size="14" lengthAdjust="spacing" textLength="65" x="470.25" y="27.8467">Company</text><line style="stroke:#181818;stroke-width:0.5;" x1="299.5" x2="673.5" y1="39" y2="39"/><text fill="#000000" font-family="sans-serif" font-size="14" lengthAdjust="spacing" textLength="284" x="304.5" y="55.9951">-distributionNetwork: DistributionNetwork</text><text fill="#000000" font-family="sans-serif" font-size="14" lengthAdjust="spacing" textLength="164" x="304.5" y="72.292">-entityStore: EntityStore</text><text fill="#000000" font-family="sans-serif" font-size="14" lengthAdjust="spacing" textLength="323" x="304.5" y="88.5889">-agriculturalParcelStore: AgriculturalParcelStore</text><text fill="#000000" font-family="sans-serif" font-size="14" lengthAdjust="spacing" textLength="228" x="304.5" y="104.8857">-cultivationStore: CultivationStore</text><line style="stroke:#181818;stroke-width:0.5;" x1="299.5" x2="673.5" y1="112.1875" y2="112.1875"/><text fill="#000000" font-family="sans-serif" font-size="14" lengthAdjust="spacing" textLength="326" x="304.5" y="129.1826">+getDistributionNetwork(): DistributionNetwork</text><text fill="#000000" font-family="sans-serif" font-size="14" lengthAdjust="spacing" textLength="204" x="304.5" y="145.4795">+getEntityStore(): EntityStore</text><text fill="#000000" font-family="sans-serif" font-size="14" lengthAdjust="spacing" textLength="364" x="304.5" y="161.7764">+getAgriculturalParcelStore(): AgriculturalParcelStore</text><text fill="#000000" font-family="sans-serif" font-size="14" lengthAdjust="spacing" textLength="270" x="304.5" y="178.0732">+getCultivationStore(): CultivationStore</text></g><!--MD5=[c49a981f9454adb5c4e8272b1f105a5b]
class EntityStore--><g id="elem_EntityStore"><rect codeLine="50" fill="#F1F1F1" height="48" id="EntityStore" rx="2.5" ry="2.5" style="stroke:#181818;stroke-width:0.5;" width="107" x="433" y="277.5"/><ellipse cx="448" cy="293.5" fill="#ADD1B2" rx="11" ry="11" style="stroke:#181818;stroke-width:1.0;"/><path d="M450.9688,299.1406 Q450.3906,299.4375 449.75,299.5781 Q449.1094,299.7344 448.4063,299.7344 Q445.9063,299.7344 444.5781,298.0938 Q443.2656,296.4375 443.2656,293.3125 Q443.2656,290.1875 444.5781,288.5313 Q445.9063,286.875 448.4063,286.875 Q449.1094,286.875 449.75,287.0313 Q450.4063,287.1875 450.9688,287.4844 L450.9688,290.2031 Q450.3438,289.625 449.75,289.3594 Q449.1563,289.0781 448.5313,289.0781 Q447.1875,289.0781 446.5,290.1563 Q445.8125,291.2188 445.8125,293.3125 Q445.8125,295.4063 446.5,296.4844 Q447.1875,297.5469 448.5313,297.5469 Q449.1563,297.5469 449.75,297.2813 Q450.3438,297 450.9688,296.4219 L450.9688,299.1406 Z " fill="#000000"/><text fill="#000000" font-family="sans-serif" font-size="14" lengthAdjust="spacing" textLength="75" x="462" y="298.3467">EntityStore</text><line style="stroke:#181818;stroke-width:0.5;" x1="434" x2="539" y1="309.5" y2="309.5"/><line style="stroke:#181818;stroke-width:0.5;" x1="434" x2="539" y1="317.5" y2="317.5"/></g><!--MD5=[cc35d7479520d660eb14d7a2c90fbcec]
reverse link Client to Entity--><g id="link_Client_Entity"><path codeLine="34" d="M77.14,340.86 C101.05,367.34 134.2,404.05 166.3,439.6 " fill="none" id="Client-backto-Entity" style="stroke:#181818;stroke-width:1.0;"/><polygon fill="none" points="71.75,345.34,63.54,325.8,82.14,335.95,71.75,345.34" style="stroke:#181818;stroke-width:1.0;"/></g><!--MD5=[af57f29d1abdcdeeb93bdd355f29fa2c]
reverse link Enterprise to Entity--><g id="link_Enterprise_Entity"><path codeLine="35" d="M214.27,377.53 C218.33,390.32 222.65,403.96 227.02,417.77 " fill="none" id="Enterprise-backto-Entity" style="stroke:#181818;stroke-width:1.0;"/><polygon fill="none" points="207.52,379.4,208.16,358.22,220.87,375.18,207.52,379.4" style="stroke:#181818;stroke-width:1.0;"/></g><!--MD5=[59f9ddd6f26d415f3abdbdf476f0032a]
reverse link Producer to Entity--><g id="link_Producer_Entity"><path codeLine="36" d="M337.02,345.05 C330.52,365.57 322.32,391.46 313.91,417.99 " fill="none" id="Producer-backto-Entity" style="stroke:#181818;stroke-width:1.0;"/><polygon fill="none" points="330.4,342.75,343.12,325.8,343.75,346.98,330.4,342.75" style="stroke:#181818;stroke-width:1.0;"/></g><!--MD5=[11dc805473cd00918658acc49815308b]
reverse link EntityStore to Entity--><g id="link_EntityStore_Entity"><path codeLine="52" d="M457.92,335.91 C436.32,361.16 405.25,397.47 374.6,433.3 " fill="none" id="EntityStore-backto-Entity" style="stroke:#181818;stroke-width:1.0;"/><polygon fill="none" points="466.57,325.8,459.6287,327.754,458.7627,334.9129,465.704,332.9589,466.57,325.8" style="stroke:#181818;stroke-width:1.0;"/><text fill="#000000" font-family="sans-serif" font-size="13" lengthAdjust="spacing" textLength="8" x="452.7371" y="345.6343">1</text><text fill="#000000" font-family="sans-serif" font-size="13" lengthAdjust="spacing" textLength="7" x="382.5019" y="420.8045">*</text></g><!--MD5=[8c5fa3e2c62a38cec11bbb09624ec0b4]
reverse link Company to EntityStore--><g id="link_Company_EntityStore"><path codeLine="54" d="M486.5,198.19 C486.5,227.81 486.5,257.49 486.5,277.2 " fill="none" id="Company-backto-EntityStore" style="stroke:#181818;stroke-width:1.0;"/><polygon fill="none" points="486.5,185.07,482.5,191.07,486.5,197.07,490.5,191.07,486.5,185.07" style="stroke:#181818;stroke-width:1.0;"/><text fill="#000000" font-family="sans-serif" font-size="13" lengthAdjust="spacing" textLength="8" x="478.1563" y="205.4255">1</text><text fill="#000000" font-family="sans-serif" font-size="13" lengthAdjust="spacing" textLength="8" x="477.525" y="266.5318">1</text></g><!--MD5=[6b0c873e144d568efe7058db3978562d]
@startuml CD

skinparam classAttributeIconSize 0

class Entity {
  - id: String
  - latitude: double
  - longitude: double
  - localizationId: String

  -validateId(): void
  -validateLatitude(): void
  -validateLongitude(): void
  -validateLocalizationId(): void

  +getId(): String
  +getLatitude(): double
  +getLongitude(): double
  +getLocalizationId(): String
  +toString(): String
}

class Client {}

class Enterprise {
  -isHub: boolean

  +makeHub(): void
  +unmakeHub(): void
  +isHub(): boolean
}

class Producer {}

Client <|- - Entity
Enterprise <|- - Entity
Producer <|- - Entity

class Company {
   - distributionNetwork: DistributionNetwork
   - entityStore: EntityStore
   - agriculturalParcelStore: AgriculturalParcelStore
   - cultivationStore: CultivationStore

  +getDistributionNetwork(): DistributionNetwork
  +getEntityStore(): EntityStore
  +getAgriculturalParcelStore(): AgriculturalParcelStore
  +getCultivationStore(): CultivationStore
}

class EntityStore {}

EntityStore "1" o- - "*" Entity

Company "1" o- - "1" EntityStore

@enduml

PlantUML version 1.2022.7(Mon Aug 22 18:01:30 WEST 2022)
(GPL source distribution)
Java Runtime: OpenJDK Runtime Environment
JVM: OpenJDK 64-Bit Server VM
Default Encoding: UTF-8
Language: en
Country: US
--></g></svg>