<?xml version="1.0" encoding="UTF-8" standalone="no"?><svg xmlns="http://www.w3.org/2000/svg" xmlns:xlink="http://www.w3.org/1999/xlink" contentStyleType="text/css" height="543px" preserveAspectRatio="none" style="width:806px;height:543px;background:#FFFFFF;" version="1.1" viewBox="0 0 806 543" width="806px" zoomAndPan="magnify"><defs/><g><!--MD5=[02e4b9b7573f1156f41e60aa5b4e25a4]
class Company--><g id="elem_Company"><rect codeLine="6" fill="#F1F1F1" height="40" id="Company" rx="2.5" ry="2.5" style="stroke:#181818;stroke-width:0.5;" width="97" x="7" y="16"/><ellipse cx="22" cy="32" fill="#ADD1B2" rx="11" ry="11" style="stroke:#181818;stroke-width:1.0;"/><path d="M24.9688,37.6406 Q24.3906,37.9375 23.75,38.0781 Q23.1094,38.2344 22.4063,38.2344 Q19.9063,38.2344 18.5781,36.5938 Q17.2656,34.9375 17.2656,31.8125 Q17.2656,28.6875 18.5781,27.0313 Q19.9063,25.375 22.4063,25.375 Q23.1094,25.375 23.75,25.5313 Q24.4063,25.6875 24.9688,25.9844 L24.9688,28.7031 Q24.3438,28.125 23.75,27.8594 Q23.1563,27.5781 22.5313,27.5781 Q21.1875,27.5781 20.5,28.6563 Q19.8125,29.7188 19.8125,31.8125 Q19.8125,33.9063 20.5,34.9844 Q21.1875,36.0469 22.5313,36.0469 Q23.1563,36.0469 23.75,35.7813 Q24.3438,35.5 24.9688,34.9219 L24.9688,37.6406 Z " fill="#000000"/><text fill="#000000" font-family="sans-serif" font-size="14" lengthAdjust="spacing" textLength="65" x="36" y="36.8467">Company</text><line style="stroke:#181818;stroke-width:0.5;" x1="8" x2="103" y1="48" y2="48"/></g><!--MD5=[be996cdb8e6bf2fc7cb89c555f2cd144]
class Entity--><g id="elem_Entity"><rect codeLine="9" fill="#F1F1F1" height="121.4844" id="Entity" rx="2.5" ry="2.5" style="stroke:#181818;stroke-width:0.5;" width="105" x="165" y="69.5"/><ellipse cx="195.75" cy="85.5" fill="#ADD1B2" rx="11" ry="11" style="stroke:#181818;stroke-width:1.0;"/><path d="M198.7188,91.1406 Q198.1406,91.4375 197.5,91.5781 Q196.8594,91.7344 196.1563,91.7344 Q193.6563,91.7344 192.3281,90.0938 Q191.0156,88.4375 191.0156,85.3125 Q191.0156,82.1875 192.3281,80.5313 Q193.6563,78.875 196.1563,78.875 Q196.8594,78.875 197.5,79.0313 Q198.1563,79.1875 198.7188,79.4844 L198.7188,82.2031 Q198.0938,81.625 197.5,81.3594 Q196.9063,81.0781 196.2813,81.0781 Q194.9375,81.0781 194.25,82.1563 Q193.5625,83.2188 193.5625,85.3125 Q193.5625,87.4063 194.25,88.4844 Q194.9375,89.5469 196.2813,89.5469 Q196.9063,89.5469 197.5,89.2813 Q198.0938,89 198.7188,88.4219 L198.7188,91.1406 Z " fill="#000000"/><text fill="#000000" font-family="sans-serif" font-size="14" lengthAdjust="spacing" textLength="38" x="213.25" y="90.3467">Entity</text><line style="stroke:#181818;stroke-width:0.5;" x1="166" x2="269" y1="101.5" y2="101.5"/><text fill="#000000" font-family="sans-serif" font-size="14" lengthAdjust="spacing" textLength="17" x="171" y="118.4951">-id</text><text fill="#000000" font-family="sans-serif" font-size="14" lengthAdjust="spacing" textLength="56" x="171" y="134.792">-latitude</text><text fill="#000000" font-family="sans-serif" font-size="14" lengthAdjust="spacing" textLength="70" x="171" y="151.0889">-longitude</text><text fill="#000000" font-family="sans-serif" font-size="14" lengthAdjust="spacing" textLength="93" x="171" y="167.3857">-localizationId</text><text fill="#000000" font-family="sans-serif" font-size="14" lengthAdjust="spacing" textLength="67" x="171" y="183.6826">-dailyData</text></g><!--MD5=[ed6624c6556d5e7b1bd23032162d20b7]
class Client--><g id="elem_Client"><rect codeLine="17" fill="#F1F1F1" height="105.1875" id="Client" rx="2.5" ry="2.5" style="stroke:#181818;stroke-width:0.5;" width="105" x="342" y="59.5"/><ellipse cx="372.3" cy="75.5" fill="#ADD1B2" rx="11" ry="11" style="stroke:#181818;stroke-width:1.0;"/><path d="M375.2688,81.1406 Q374.6906,81.4375 374.05,81.5781 Q373.4094,81.7344 372.7063,81.7344 Q370.2063,81.7344 368.8781,80.0938 Q367.5656,78.4375 367.5656,75.3125 Q367.5656,72.1875 368.8781,70.5313 Q370.2063,68.875 372.7063,68.875 Q373.4094,68.875 374.05,69.0313 Q374.7063,69.1875 375.2688,69.4844 L375.2688,72.2031 Q374.6438,71.625 374.05,71.3594 Q373.4563,71.0781 372.8313,71.0781 Q371.4875,71.0781 370.8,72.1563 Q370.1125,73.2188 370.1125,75.3125 Q370.1125,77.4063 370.8,78.4844 Q371.4875,79.5469 372.8313,79.5469 Q373.4563,79.5469 374.05,79.2813 Q374.6438,79 375.2688,78.4219 L375.2688,81.1406 Z " fill="#000000"/><text fill="#000000" font-family="sans-serif" font-size="14" lengthAdjust="spacing" textLength="39" x="389.7" y="80.3467">Client</text><line style="stroke:#181818;stroke-width:0.5;" x1="343" x2="446" y1="91.5" y2="91.5"/><text fill="#000000" font-family="sans-serif" font-size="14" lengthAdjust="spacing" textLength="17" x="348" y="108.4951">-id</text><text fill="#000000" font-family="sans-serif" font-size="14" lengthAdjust="spacing" textLength="56" x="348" y="124.792">-latitude</text><text fill="#000000" font-family="sans-serif" font-size="14" lengthAdjust="spacing" textLength="70" x="348" y="141.0889">-longitude</text><text fill="#000000" font-family="sans-serif" font-size="14" lengthAdjust="spacing" textLength="93" x="348" y="157.3857">-localizationId</text></g><!--MD5=[428f3d998c8a9a358b7cb233b781ad06]
class Enterprise--><g id="elem_Enterprise"><rect codeLine="24" fill="#F1F1F1" height="105.1875" id="Enterprise" rx="2.5" ry="2.5" style="stroke:#181818;stroke-width:0.5;" width="105" x="342" y="199.5"/><ellipse cx="357.9" cy="215.5" fill="#ADD1B2" rx="11" ry="11" style="stroke:#181818;stroke-width:1.0;"/><path d="M360.8688,221.1406 Q360.2906,221.4375 359.65,221.5781 Q359.0094,221.7344 358.3063,221.7344 Q355.8063,221.7344 354.4781,220.0938 Q353.1656,218.4375 353.1656,215.3125 Q353.1656,212.1875 354.4781,210.5313 Q355.8063,208.875 358.3063,208.875 Q359.0094,208.875 359.65,209.0313 Q360.3063,209.1875 360.8688,209.4844 L360.8688,212.2031 Q360.2438,211.625 359.65,211.3594 Q359.0563,211.0781 358.4313,211.0781 Q357.0875,211.0781 356.4,212.1563 Q355.7125,213.2188 355.7125,215.3125 Q355.7125,217.4063 356.4,218.4844 Q357.0875,219.5469 358.4313,219.5469 Q359.0563,219.5469 359.65,219.2813 Q360.2438,219 360.8688,218.4219 L360.8688,221.1406 Z " fill="#000000"/><text fill="#000000" font-family="sans-serif" font-size="14" lengthAdjust="spacing" textLength="71" x="372.1" y="220.3467">Enterprise</text><line style="stroke:#181818;stroke-width:0.5;" x1="343" x2="446" y1="231.5" y2="231.5"/><text fill="#000000" font-family="sans-serif" font-size="14" lengthAdjust="spacing" textLength="17" x="348" y="248.4951">-id</text><text fill="#000000" font-family="sans-serif" font-size="14" lengthAdjust="spacing" textLength="56" x="348" y="264.792">-latitude</text><text fill="#000000" font-family="sans-serif" font-size="14" lengthAdjust="spacing" textLength="70" x="348" y="281.0889">-longitude</text><text fill="#000000" font-family="sans-serif" font-size="14" lengthAdjust="spacing" textLength="93" x="348" y="297.3857">-localizationId</text></g><!--MD5=[09e3160644ea82bed9dc2bfdc7bfe5c8]
class Producer--><g id="elem_Producer"><rect codeLine="31" fill="#F1F1F1" height="105.1875" id="Producer" rx="2.5" ry="2.5" style="stroke:#181818;stroke-width:0.5;" width="105" x="342" y="339.5"/><ellipse cx="361.5" cy="355.5" fill="#ADD1B2" rx="11" ry="11" style="stroke:#181818;stroke-width:1.0;"/><path d="M364.4688,361.1406 Q363.8906,361.4375 363.25,361.5781 Q362.6094,361.7344 361.9063,361.7344 Q359.4063,361.7344 358.0781,360.0938 Q356.7656,358.4375 356.7656,355.3125 Q356.7656,352.1875 358.0781,350.5313 Q359.4063,348.875 361.9063,348.875 Q362.6094,348.875 363.25,349.0313 Q363.9063,349.1875 364.4688,349.4844 L364.4688,352.2031 Q363.8438,351.625 363.25,351.3594 Q362.6563,351.0781 362.0313,351.0781 Q360.6875,351.0781 360,352.1563 Q359.3125,353.2188 359.3125,355.3125 Q359.3125,357.4063 360,358.4844 Q360.6875,359.5469 362.0313,359.5469 Q362.6563,359.5469 363.25,359.2813 Q363.8438,359 364.4688,358.4219 L364.4688,361.1406 Z " fill="#000000"/><text fill="#000000" font-family="sans-serif" font-size="14" lengthAdjust="spacing" textLength="63" x="376.5" y="360.3467">Producer</text><line style="stroke:#181818;stroke-width:0.5;" x1="343" x2="446" y1="371.5" y2="371.5"/><text fill="#000000" font-family="sans-serif" font-size="14" lengthAdjust="spacing" textLength="17" x="348" y="388.4951">-id</text><text fill="#000000" font-family="sans-serif" font-size="14" lengthAdjust="spacing" textLength="56" x="348" y="404.792">-latitude</text><text fill="#000000" font-family="sans-serif" font-size="14" lengthAdjust="spacing" textLength="70" x="348" y="421.0889">-longitude</text><text fill="#000000" font-family="sans-serif" font-size="14" lengthAdjust="spacing" textLength="93" x="348" y="437.3857">-localizationId</text></g><!--MD5=[72136138052d025cffdce3c22fbd185f]
class Product--><g id="elem_Product"><rect codeLine="38" fill="#F1F1F1" height="56.2969" id="Product" rx="2.5" ry="2.5" style="stroke:#181818;stroke-width:0.5;" width="86" x="713" y="31"/><ellipse cx="728" cy="47" fill="#ADD1B2" rx="11" ry="11" style="stroke:#181818;stroke-width:1.0;"/><path d="M730.9688,52.6406 Q730.3906,52.9375 729.75,53.0781 Q729.1094,53.2344 728.4063,53.2344 Q725.9063,53.2344 724.5781,51.5938 Q723.2656,49.9375 723.2656,46.8125 Q723.2656,43.6875 724.5781,42.0313 Q725.9063,40.375 728.4063,40.375 Q729.1094,40.375 729.75,40.5313 Q730.4063,40.6875 730.9688,40.9844 L730.9688,43.7031 Q730.3438,43.125 729.75,42.8594 Q729.1563,42.5781 728.5313,42.5781 Q727.1875,42.5781 726.5,43.6563 Q725.8125,44.7188 725.8125,46.8125 Q725.8125,48.9063 726.5,49.9844 Q727.1875,51.0469 728.5313,51.0469 Q729.1563,51.0469 729.75,50.7813 Q730.3438,50.5 730.9688,49.9219 L730.9688,52.6406 Z " fill="#000000"/><text fill="#000000" font-family="sans-serif" font-size="14" lengthAdjust="spacing" textLength="54" x="742" y="51.8467">Product</text><line style="stroke:#181818;stroke-width:0.5;" x1="714" x2="798" y1="63" y2="63"/><text fill="#000000" font-family="sans-serif" font-size="14" lengthAdjust="spacing" textLength="44" x="719" y="79.9951">-name</text></g><!--MD5=[a7a294a2d2fc533a8f9f617ab0f8faab]
class Basket--><g id="elem_Basket"><rect codeLine="42" fill="#F1F1F1" height="105.1875" id="Basket" rx="2.5" ry="2.5" style="stroke:#181818;stroke-width:0.5;" width="80" x="572" y="199.5"/><ellipse cx="587" cy="215.5" fill="#ADD1B2" rx="11" ry="11" style="stroke:#181818;stroke-width:1.0;"/><path d="M589.9688,221.1406 Q589.3906,221.4375 588.75,221.5781 Q588.1094,221.7344 587.4063,221.7344 Q584.9063,221.7344 583.5781,220.0938 Q582.2656,218.4375 582.2656,215.3125 Q582.2656,212.1875 583.5781,210.5313 Q584.9063,208.875 587.4063,208.875 Q588.1094,208.875 588.75,209.0313 Q589.4063,209.1875 589.9688,209.4844 L589.9688,212.2031 Q589.3438,211.625 588.75,211.3594 Q588.1563,211.0781 587.5313,211.0781 Q586.1875,211.0781 585.5,212.1563 Q584.8125,213.2188 584.8125,215.3125 Q584.8125,217.4063 585.5,218.4844 Q586.1875,219.5469 587.5313,219.5469 Q588.1563,219.5469 588.75,219.2813 Q589.3438,219 589.9688,218.4219 L589.9688,221.1406 Z " fill="#000000"/><text fill="#000000" font-family="sans-serif" font-size="14" lengthAdjust="spacing" textLength="48" x="601" y="220.3467">Basket</text><line style="stroke:#181818;stroke-width:0.5;" x1="573" x2="651" y1="231.5" y2="231.5"/><text fill="#000000" font-family="sans-serif" font-size="14" lengthAdjust="spacing" textLength="42" x="578" y="248.4951">-client</text><text fill="#000000" font-family="sans-serif" font-size="14" lengthAdjust="spacing" textLength="32" x="578" y="264.792">-hub</text><text fill="#000000" font-family="sans-serif" font-size="14" lengthAdjust="spacing" textLength="60" x="578" y="281.0889">-ordered</text><text fill="#000000" font-family="sans-serif" font-size="14" lengthAdjust="spacing" textLength="64" x="578" y="297.3857">-received</text></g><!--MD5=[e7eb5e7d4615f1e6fbab163898a3b169]
class ExpeditionList--><g id="elem_ExpeditionList"><rect codeLine="49" fill="#F1F1F1" height="56.2969" id="ExpeditionList" rx="2.5" ry="2.5" style="stroke:#181818;stroke-width:0.5;" width="127" x="331" y="480"/><ellipse cx="346" cy="496" fill="#ADD1B2" rx="11" ry="11" style="stroke:#181818;stroke-width:1.0;"/><path d="M348.9688,501.6406 Q348.3906,501.9375 347.75,502.0781 Q347.1094,502.2344 346.4063,502.2344 Q343.9063,502.2344 342.5781,500.5938 Q341.2656,498.9375 341.2656,495.8125 Q341.2656,492.6875 342.5781,491.0313 Q343.9063,489.375 346.4063,489.375 Q347.1094,489.375 347.75,489.5313 Q348.4063,489.6875 348.9688,489.9844 L348.9688,492.7031 Q348.3438,492.125 347.75,491.8594 Q347.1563,491.5781 346.5313,491.5781 Q345.1875,491.5781 344.5,492.6563 Q343.8125,493.7188 343.8125,495.8125 Q343.8125,497.9063 344.5,498.9844 Q345.1875,500.0469 346.5313,500.0469 Q347.1563,500.0469 347.75,499.7813 Q348.3438,499.5 348.9688,498.9219 L348.9688,501.6406 Z " fill="#000000"/><text fill="#000000" font-family="sans-serif" font-size="14" lengthAdjust="spacing" textLength="95" x="360" y="500.8467">ExpeditionList</text><line style="stroke:#181818;stroke-width:0.5;" x1="332" x2="457" y1="512" y2="512"/><text fill="#000000" font-family="sans-serif" font-size="14" lengthAdjust="spacing" textLength="29" x="337" y="528.9951">-day</text></g><!--MD5=[5734a5c4ce76dc085ead18910fd4b0e2]
class DailyData--><g id="elem_DailyData"><rect codeLine="53" fill="#F1F1F1" height="40" id="DailyData" rx="2.5" ry="2.5" style="stroke:#181818;stroke-width:0.5;" width="96" x="7.5" y="110"/><ellipse cx="22.5" cy="126" fill="#ADD1B2" rx="11" ry="11" style="stroke:#181818;stroke-width:1.0;"/><path d="M25.4688,131.6406 Q24.8906,131.9375 24.25,132.0781 Q23.6094,132.2344 22.9063,132.2344 Q20.4063,132.2344 19.0781,130.5938 Q17.7656,128.9375 17.7656,125.8125 Q17.7656,122.6875 19.0781,121.0313 Q20.4063,119.375 22.9063,119.375 Q23.6094,119.375 24.25,119.5313 Q24.9063,119.6875 25.4688,119.9844 L25.4688,122.7031 Q24.8438,122.125 24.25,121.8594 Q23.6563,121.5781 23.0313,121.5781 Q21.6875,121.5781 21,122.6563 Q20.3125,123.7188 20.3125,125.8125 Q20.3125,127.9063 21,128.9844 Q21.6875,130.0469 23.0313,130.0469 Q23.6563,130.0469 24.25,129.7813 Q24.8438,129.5 25.4688,128.9219 L25.4688,131.6406 Z " fill="#000000"/><text fill="#000000" font-family="sans-serif" font-size="14" lengthAdjust="spacing" textLength="64" x="36.5" y="130.8467">DailyData</text><line style="stroke:#181818;stroke-width:0.5;" x1="8.5" x2="102.5" y1="142" y2="142"/></g><!--MD5=[5585da41e9b68d4b318462d5361f02e9]
reverse link ExpeditionList to Basket--><g id="link_ExpeditionList_Basket"><path codeLine="55" d="M447.85,471.41 C451.39,468.35 454.81,465.2 458,462 C506.05,413.72 550.64,349.33 579.15,304.64 " fill="none" id="ExpeditionList-backto-Basket" style="stroke:#181818;stroke-width:1.0;"/><polygon fill="none" points="437.64,479.76,444.8167,479.0564,446.9275,472.1611,439.7508,472.8647,437.64,479.76" style="stroke:#181818;stroke-width:1.0;"/><text fill="#000000" font-family="sans-serif" font-size="13" lengthAdjust="spacing" textLength="8" x="438.2019" y="468.9908">1</text><text fill="#000000" font-family="sans-serif" font-size="13" lengthAdjust="spacing" textLength="7" x="567.2655" y="324.7845">*</text></g><!--MD5=[147be4cce56986b5aaa9c0dc19e2a3b5]
reverse link DailyData to Entity--><g id="link_DailyData_Entity"><path codeLine="56" d="M116.66,130 C132.55,130 149.56,130 164.95,130 " fill="none" id="DailyData-backto-Entity" style="stroke:#181818;stroke-width:1.0;"/><polygon fill="#181818" points="103.64,130,109.64,134,115.64,130,109.64,126,103.64,130" style="stroke:#181818;stroke-width:1.0;"/><text fill="#000000" font-family="sans-serif" font-size="13" lengthAdjust="spacing" textLength="8" x="111.6239" y="143.2255">1</text><text fill="#000000" font-family="sans-serif" font-size="13" lengthAdjust="spacing" textLength="8" x="148.9977" y="143.0969">1</text></g><!--MD5=[0aff1ca706c529bf8a7ba9857d4b7292]
reverse link Company to Entity--><g id="link_Company_Entity"><path codeLine="58" d="M102.21,62.86 C121.78,74.35 144.72,87.83 164.9,99.68 " fill="none" id="Company-backto-Entity" style="stroke:#181818;stroke-width:1.0;"/><polygon fill="none" points="90.82,56.17,93.9646,62.6593,101.1642,62.2525,98.0196,55.7632,90.82,56.17" style="stroke:#181818;stroke-width:1.0;"/><text fill="#000000" font-family="sans-serif" font-size="13" lengthAdjust="spacing" textLength="8" x="91.6288" y="76.0378">1</text><text fill="#000000" font-family="sans-serif" font-size="13" lengthAdjust="spacing" textLength="7" x="150.0109" y="108.5131">*</text></g><!--MD5=[5fb3c0bffdaab9a3936130ec7329c821]
reverse link Company to Product--><g id="link_Company_Product"><path codeLine="59" d="M116.76,19.25 C146.53,12.38 183.14,6 216.5,6 C216.5,6 216.5,6 613,6 C648.13,6 685.24,20.41 712.7,34.21 " fill="none" id="Company-backto-Product" style="stroke:#181818;stroke-width:1.0;"/><polygon fill="none" points="104.02,22.32,110.7894,24.805,115.6869,19.512,108.9174,17.0271,104.02,22.32" style="stroke:#181818;stroke-width:1.0;"/><text fill="#000000" font-family="sans-serif" font-size="13" lengthAdjust="spacing" textLength="8" x="112.0621" y="33.4508">1</text><text fill="#000000" font-family="sans-serif" font-size="13" lengthAdjust="spacing" textLength="7" x="697.9488" y="43.3997">*</text></g><!--MD5=[fab45bb7e1b39fcd63e8e6ff7fb9111a]
link Producer to Basket--><g id="link_Producer_Basket"><path codeLine="61" d="M447.12,358.47 C485.47,333.55 536.98,300.08 571.95,277.37 " fill="none" id="Producer-Basket" style="stroke:#181818;stroke-width:1.0;"/><text fill="#000000" font-family="sans-serif" font-size="13" lengthAdjust="spacing" textLength="52" x="489" y="293.0669">supplies</text><text fill="#000000" font-family="sans-serif" font-size="13" lengthAdjust="spacing" textLength="8" x="455.0822" y="366.8726">1</text><text fill="#000000" font-family="sans-serif" font-size="13" lengthAdjust="spacing" textLength="7" x="556.9205" y="295.4923">*</text></g><!--MD5=[db7a09d76be6b76c7687bc58d1202bb7]
link Client to Basket--><g id="link_Client_Basket"><path codeLine="62" d="M447.12,145.53 C485.47,170.45 536.98,203.92 571.95,226.63 " fill="none" id="Client-Basket" style="stroke:#181818;stroke-width:1.0;"/><text fill="#000000" font-family="sans-serif" font-size="13" lengthAdjust="spacing" textLength="41" x="494.5" y="169.0669">orders</text><text fill="#000000" font-family="sans-serif" font-size="13" lengthAdjust="spacing" textLength="8" x="455.0822" y="163.3629">1</text><text fill="#000000" font-family="sans-serif" font-size="13" lengthAdjust="spacing" textLength="7" x="556.9205" y="235.3971">*</text></g><!--MD5=[724bdaf82232bde58381d7a61d35134e]
link Basket to Product--><g id="link_Basket_Product"><path codeLine="64" d="M651.8,199.26 C678.41,163.1 712.67,116.54 734.24,87.22 " fill="none" id="Basket-Product" style="stroke:#181818;stroke-width:1.0;"/><text fill="#000000" font-family="sans-serif" font-size="13" lengthAdjust="spacing" textLength="8" x="659.8756" y="202.9807">1</text><text fill="#000000" font-family="sans-serif" font-size="13" lengthAdjust="spacing" textLength="7" x="721.3986" y="107.5282">*</text></g><!--MD5=[8c18a3e940869885f988beeec74dfa23]
reverse link Entity to Client--><g id="link_Entity_Client"><path codeLine="66" d="M290.14,122.63 C307.42,120.85 325.54,118.99 341.7,117.33 " fill="none" id="Entity-backto-Client" style="stroke:#181818;stroke-width:1.0;"/><polygon fill="none" points="290.67,129.61,270.06,124.7,289.24,115.69,290.67,129.61" style="stroke:#181818;stroke-width:1.0;"/></g><!--MD5=[e621ab605ec2d9cc329af207384c1968]
reverse link Entity to Enterprise--><g id="link_Entity_Enterprise"><path codeLine="67" d="M286.48,177.39 C304.83,190.19 324.39,203.82 341.7,215.89 " fill="none" id="Entity-backto-Enterprise" style="stroke:#181818;stroke-width:1.0;"/><polygon fill="none" points="282.46,183.12,270.06,165.94,290.47,171.64,282.46,183.12" style="stroke:#181818;stroke-width:1.0;"/></g><!--MD5=[27faf48719fdd40080575ded41375000]
reverse link Entity to Producer--><g id="link_Entity_Producer"><path codeLine="68" d="M259.95,208.72 C279.88,244.35 305.05,286.36 331,322 C335.22,327.79 339.84,333.67 344.59,339.41 " fill="none" id="Entity-backto-Producer" style="stroke:#181818;stroke-width:1.0;"/><polygon fill="none" points="253.56,211.64,250.03,190.74,265.82,204.87,253.56,211.64" style="stroke:#181818;stroke-width:1.0;"/></g><!--MD5=[3dc60ef83b4417fabd67b66f96fdbf95]
@startuml DM

hide methods
left to right direction
skinparam classAttributeIconSize 0

class Company {
}

class Entity {
  - id
  - latitude
  - longitude
  - localizationId
  - dailyData
}

class Client {
  - id
  - latitude
  - longitude
  - localizationId
}

class Enterprise {
  - id
  - latitude
  - longitude
  - localizationId
}

class Producer {
  - id
  - latitude
  - longitude
  - localizationId
}

class Product {
  - name
}

class Basket {
  - client
  - hub
  - ordered
  - received
}

class ExpeditionList {
  - day
}

class DailyData {}

ExpeditionList "1" o- - "*" Basket
DailyData "1" *- - "1" Entity

Company "1" o- - "*" Entity
Company "1" o- - "*" Product

Producer "1" - - "*" Basket : supplies
Client "1" - - "*" Basket : orders

Basket "1" - - "*" Product

Entity <|- - Client
Entity <|- - Enterprise
Entity <|- - Producer

@enduml

PlantUML version 1.2022.7(Mon Aug 22 18:01:30 WEST 2022)
(GPL source distribution)
Java Runtime: OpenJDK Runtime Environment
JVM: OpenJDK 64-Bit Server VM
Default Encoding: UTF-8
Language: en
Country: US
--></g></svg>